<svg xmlns="http://www.w3.org/2000/svg" viewBox="0 0 512 512" role="img" aria-label="工造星球图标">
  <defs>
    <linearGradient id="bg" x1="72" y1="32" x2="440" y2="480" gradientUnits="userSpaceOnUse">
      <stop offset="0" stop-color="#67e8f9"/>
      <stop offset="0.48" stop-color="#a7f3d0"/>
      <stop offset="1" stop-color="#fbbf24"/>
    </linearGradient>
    <linearGradient id="planet" x1="138" y1="122" x2="374" y2="382" gradientUnits="userSpaceOnUse">
      <stop offset="0" stop-color="#ffffff"/>
      <stop offset="1" stop-color="#dbeafe"/>
    </linearGradient>
  </defs>
  <rect x="24" y="24" width="464" height="464" rx="112" fill="url(#bg)"/>
  <rect x="42" y="42" width="428" height="428" rx="96" fill="none" stroke="#0f3a5a" stroke-opacity=".18" stroke-width="16"/>
  <ellipse cx="256" cy="258" rx="184" ry="74" fill="none" stroke="#0f3a5a" stroke-width="26" opacity=".24" transform="rotate(-16 256 258)"/>
  <circle cx="256" cy="252" r="132" fill="url(#planet)" stroke="#0f3a5a" stroke-width="18"/>
  <path d="M164 250h184v72H164z" fill="#0ea5e9" stroke="#0f3a5a" stroke-width="14" stroke-linejoin="round"/>
  <path d="M164 250l46-42 46 42 46-42 46 42" fill="none" stroke="#0f3a5a" stroke-width="14" stroke-linecap="round" stroke-linejoin="round"/>
  <rect x="194" y="280" width="34" height="42" rx="8" fill="#fef3c7" stroke="#0f3a5a" stroke-width="10"/>
  <rect x="242" y="280" width="34" height="42" rx="8" fill="#fef3c7" stroke="#0f3a5a" stroke-width="10"/>
  <rect x="290" y="280" width="34" height="42" rx="8" fill="#fef3c7" stroke="#0f3a5a" stroke-width="10"/>
  <rect x="168" y="170" width="38" height="72" rx="12" fill="#fde68a" stroke="#0f3a5a" stroke-width="12"/>
  <rect x="306" y="158" width="42" height="84" rx="12" fill="#fde68a" stroke="#0f3a5a" stroke-width="12"/>
  <path d="M188 144c-20-16 18-28-8-44M328 128c-28-18 18-34-12-54" fill="none" stroke="#ffffff" stroke-width="18" stroke-linecap="round" opacity=".85"/>
  <text x="256" y="414" text-anchor="middle" font-family="Arial, 'Microsoft YaHei', sans-serif" font-size="74" font-weight="900" fill="#0f3a5a">工造</text>
</svg>
