<svg xmlns="http://www.w3.org/2000/svg" width="1400" height="900" viewBox="0 0 1400 900">
  <defs><marker id="arrow" viewBox="0 0 8 8" refX="4" refY="4" markerWidth="6" markerHeight="6" orient="auto-start-reverse"><path d="M0,0 L8,4 L0,8 Z" fill="#111"/></marker></defs>
  <style>
    svg{background:#fff;font-family:"Microsoft YaHei","SimSun",Arial,sans-serif}.border{fill:none;stroke:#111;stroke-width:1.4}.thick{fill:none;stroke:#111;stroke-width:2.8;stroke-linejoin:round;stroke-linecap:round}.thin{fill:none;stroke:#111;stroke-width:1.15;stroke-linejoin:round}.hidden{fill:none;stroke:#111;stroke-width:1.05;stroke-dasharray:8 5}.center,.centerline{fill:none;stroke:#111;stroke-width:1;stroke-dasharray:18 5 3 5}.void{fill:none;stroke:#111;stroke-width:1.2}.hatch{stroke:#111;stroke-width:.8}.dim{fill:none;stroke:#111;stroke-width:1;marker-start:url(#arrow);marker-end:url(#arrow)}.txt{font-size:18px;fill:#111}.dimtxt{font-size:16px;fill:#111}.small{font-size:15px;fill:#111}.label{font-size:20px;font-weight:700;fill:#111}
  </style>
  <rect x="40" y="35" width="1320" height="820" class="border" /><rect x="880" y="735" width="480" height="120" class="thin" /><line x1="880" y1="770" x2="1360" y2="770" class="thin"/><line x1="880" y1="805" x2="1360" y2="805" class="thin"/><line x1="995" y1="735" x2="995" y2="855" class="thin"/><line x1="1130" y1="735" x2="1130" y2="855" class="thin"/><line x1="1240" y1="735" x2="1240" y2="855" class="thin"/><text x="938" y="759" class="small" text-anchor="middle">图名</text><text x="1060" y="759" class="small" text-anchor="middle">阶梯轴全剖与移出断面</text><text x="1185" y="759" class="small" text-anchor="middle">图号</text><text x="1300" y="759" class="small" text-anchor="middle">DRAW-002</text><text x="938" y="794" class="small" text-anchor="middle">材料</text><text x="1060" y="794" class="txt" text-anchor="middle">45钢</text><text x="1185" y="794" class="small" text-anchor="middle">比例</text><text x="1300" y="794" class="small" text-anchor="middle">1:2</text><text x="938" y="829" class="small" text-anchor="middle">单位</text><text x="1060" y="829" class="small" text-anchor="middle">mm</text><text x="1185" y="829" class="small" text-anchor="middle">工造星球</text><text x="1300" y="829" class="small" text-anchor="middle">审核</text>
  <text x="700" y="65" class="label" text-anchor="middle">阶梯轴全剖与移出断面</text>
  
    <pattern id="p2" width="8" height="8" patternUnits="userSpaceOnUse" patternTransform="rotate(45)"><line x1="0" y1="0" x2="0" y2="8" class="hatch"/></pattern>
    <text x="405" y="120" class="label" text-anchor="middle">主视图（全剖）</text> <text x="405" y="388" class="label" text-anchor="middle">A-A 移出断面</text>
    <line x1="110" y1="220" x2="700" y2="220" class="center"/><line x1="405" y1="155" x2="405" y2="285" class="center"/>
    <path d="M135 192 H235 V178 H365 V164 H535 V182 H675 V258 H535 V276 H365 V262 H235 V248 H135 Z" class="thick" fill="url(#p2)"/>
    <path d="M135 210 H675 M135 238 H675" class="void"/>
    <rect x="352" y="164" width="74" height="34" class="thin" fill="white"/><text x="390" y="156" class="small">键槽 12N9</text>
    <line x1="135" y1="286" x2="135" y2="326" class="thin"/><line x1="675" y1="286" x2="675" y2="326" class="thin"/><line x1="135" y1="326" x2="675" y2="326" class="dim"/><text x="405" y="321" class="dimtxt" text-anchor="middle">总长 180</text> <line x1="135" y1="286" x2="135" y2="364" class="thin"/><line x1="235" y1="286" x2="235" y2="364" class="thin"/><line x1="135" y1="364" x2="235" y2="364" class="dim"/><text x="185" y="359" class="dimtxt" text-anchor="middle">35</text> <line x1="235" y1="286" x2="235" y2="364" class="thin"/><line x1="365" y1="286" x2="365" y2="364" class="thin"/><line x1="235" y1="364" x2="365" y2="364" class="dim"/><text x="300" y="359" class="dimtxt" text-anchor="middle">45</text> <line x1="365" y1="286" x2="365" y2="364" class="thin"/><line x1="535" y1="286" x2="535" y2="364" class="thin"/><line x1="365" y1="364" x2="535" y2="364" class="dim"/><text x="450" y="359" class="dimtxt" text-anchor="middle">60</text>
    <line x1="680" y1="182" x2="735" y2="182" class="thin"/><line x1="680" y1="258" x2="735" y2="258" class="thin"/><line x1="735" y1="182" x2="735" y2="258" class="dim"/><text x="729" y="220" class="dimtxt" text-anchor="end">Ø50</text> <line x1="120" y1="192" x2="74" y2="192" class="thin"/><line x1="120" y1="248" x2="74" y2="248" class="thin"/><line x1="74" y1="192" x2="74" y2="248" class="dim"/><text x="68" y="220" class="dimtxt" text-anchor="end">Ø32</text> <text x="610" y="154" class="small" text-anchor="middle">2×1.5×45°</text>
    <circle cx="405" cy="480" r="66" class="thick" /> <circle cx="405" cy="480" r="28" class="thin" /> <rect x="374" y="414" width="62" height="28" class="thin" fill="white"/> <line x1="325" y1="480" x2="485" y2="480" class="center"/><line x1="405" y1="400" x2="405" y2="560" class="center"/>
    <text x="940" y="165" class="label" text-anchor="start">技术要求：</text> <text x="940" y="198" class="small" text-anchor="start">1. 两端倒角 1.5×45°。</text> <text x="940" y="226" class="small" text-anchor="start">2. Ø50外圆 Ra1.6；键槽侧面 Ra3.2。</text> <text x="940" y="254" class="small" text-anchor="start">3. 轴向尺寸从左端基准分段标注。</text>
  
  </svg>
