<svg xmlns="http://www.w3.org/2000/svg" width="1400" height="900" viewBox="0 0 1400 900">
  <defs><marker id="arrow" viewBox="0 0 8 8" refX="4" refY="4" markerWidth="6" markerHeight="6" orient="auto-start-reverse"><path d="M0,0 L8,4 L0,8 Z" fill="#111"/></marker></defs>
  <style>
    svg{background:#fff;font-family:"Microsoft YaHei","SimSun",Arial,sans-serif}.border{fill:none;stroke:#111;stroke-width:1.4}.thick{fill:none;stroke:#111;stroke-width:2.8;stroke-linejoin:round;stroke-linecap:round}.thin{fill:none;stroke:#111;stroke-width:1.15;stroke-linejoin:round}.hidden{fill:none;stroke:#111;stroke-width:1.05;stroke-dasharray:8 5}.center,.centerline{fill:none;stroke:#111;stroke-width:1;stroke-dasharray:18 5 3 5}.void{fill:none;stroke:#111;stroke-width:1.2}.hatch{stroke:#111;stroke-width:.8}.dim{fill:none;stroke:#111;stroke-width:1;marker-start:url(#arrow);marker-end:url(#arrow)}.txt{font-size:18px;fill:#111}.dimtxt{font-size:16px;fill:#111}.small{font-size:15px;fill:#111}.label{font-size:20px;font-weight:700;fill:#111}
  </style>
  <rect x="40" y="35" width="1320" height="820" class="border" /><rect x="880" y="735" width="480" height="120" class="thin" /><line x1="880" y1="770" x2="1360" y2="770" class="thin"/><line x1="880" y1="805" x2="1360" y2="805" class="thin"/><line x1="995" y1="735" x2="995" y2="855" class="thin"/><line x1="1130" y1="735" x2="1130" y2="855" class="thin"/><line x1="1240" y1="735" x2="1240" y2="855" class="thin"/><text x="938" y="759" class="small" text-anchor="middle">图名</text><text x="1060" y="759" class="small" text-anchor="middle">沉孔连接板零件图</text><text x="1185" y="759" class="small" text-anchor="middle">图号</text><text x="1300" y="759" class="small" text-anchor="middle">DRAW-006</text><text x="938" y="794" class="small" text-anchor="middle">材料</text><text x="1060" y="794" class="txt" text-anchor="middle">HT200</text><text x="1185" y="794" class="small" text-anchor="middle">比例</text><text x="1300" y="794" class="small" text-anchor="middle">1:2</text><text x="938" y="829" class="small" text-anchor="middle">单位</text><text x="1060" y="829" class="small" text-anchor="middle">mm</text><text x="1185" y="829" class="small" text-anchor="middle">工造星球</text><text x="1300" y="829" class="small" text-anchor="middle">审核</text>
  <text x="700" y="65" class="label" text-anchor="middle">沉孔连接板零件图</text>
  
    <text x="315" y="100" class="label" text-anchor="middle">主视图</text> <text x="315" y="410" class="label" text-anchor="middle">俯视图</text> <text x="760" y="100" class="label" text-anchor="middle">B向局部剖视</text>
    <path d="M125 185 H505 V295 H125 Z" class="thick" fill="none"/>
    <circle cx="180" cy="240" r="18" class="thin" /><circle cx="180" cy="240" r="34" class="hidden" /><line x1="135" y1="240" x2="225" y2="240" class="center"/><line x1="180" y1="195" x2="180" y2="285" class="center"/><circle cx="300" cy="240" r="18" class="thin" /><circle cx="300" cy="240" r="34" class="hidden" /><line x1="255" y1="240" x2="345" y2="240" class="center"/><line x1="300" y1="195" x2="300" y2="285" class="center"/><circle cx="420" cy="240" r="18" class="thin" /><circle cx="420" cy="240" r="34" class="hidden" /><line x1="375" y1="240" x2="465" y2="240" class="center"/><line x1="420" y1="195" x2="420" y2="285" class="center"/>
    <line x1="125" y1="295" x2="125" y2="337" class="thin"/><line x1="505" y1="295" x2="505" y2="337" class="thin"/><line x1="125" y1="337" x2="505" y2="337" class="dim"/><text x="315" y="332" class="dimtxt" text-anchor="middle">180</text> <line x1="180" y1="240" x2="180" y2="332" class="thin"/><line x1="420" y1="240" x2="420" y2="332" class="thin"/><line x1="180" y1="332" x2="420" y2="332" class="dim"/><text x="300" y="327" class="dimtxt" text-anchor="middle">3×Ø12通孔，Ø24沉孔深5</text> <line x1="125" y1="185" x2="85" y2="185" class="thin"/><line x1="125" y1="295" x2="85" y2="295" class="thin"/><line x1="85" y1="185" x2="85" y2="295" class="dim"/><text x="79" y="240" class="dimtxt" text-anchor="end">60</text>
    <path d="M125 500 H505 V590 H125 Z M162 500 a18 18 0 0 1 36 0 M282 500 a18 18 0 0 1 36 0 M402 500 a18 18 0 0 1 36 0" class="thick" fill="none"/>
    <line x1="140" y1="545" x2="220" y2="545" class="center"/><line x1="180" y1="500" x2="180" y2="590" class="center"/><circle cx="180" cy="545" r="18" class="thin" /><circle cx="180" cy="545" r="34" class="thin" /><line x1="260" y1="545" x2="340" y2="545" class="center"/><line x1="300" y1="500" x2="300" y2="590" class="center"/><circle cx="300" cy="545" r="18" class="thin" /><circle cx="300" cy="545" r="34" class="thin" /><line x1="380" y1="545" x2="460" y2="545" class="center"/><line x1="420" y1="500" x2="420" y2="590" class="center"/><circle cx="420" cy="545" r="18" class="thin" /><circle cx="420" cy="545" r="34" class="thin" />
    <line x1="125" y1="590" x2="125" y2="632" class="thin"/><line x1="505" y1="590" x2="505" y2="632" class="thin"/><line x1="125" y1="632" x2="505" y2="632" class="dim"/><text x="315" y="627" class="dimtxt" text-anchor="middle">180</text> <line x1="180" y1="545" x2="180" y2="623" class="thin"/><line x1="300" y1="545" x2="300" y2="623" class="thin"/><line x1="180" y1="623" x2="300" y2="623" class="dim"/><text x="240" y="618" class="dimtxt" text-anchor="middle">60</text> <line x1="300" y1="545" x2="300" y2="623" class="thin"/><line x1="420" y1="545" x2="420" y2="623" class="thin"/><line x1="300" y1="623" x2="420" y2="623" class="dim"/><text x="360" y="618" class="dimtxt" text-anchor="middle">60</text>
    <path d="M710 180 H850 V300 H710 Z M742 180 V210 H818 V180 M742 270 V300 M818 270 V300" class="thin" fill="none"/>
    <line x1="710" y1="300" x2="710" y2="342" class="thin"/><line x1="850" y1="300" x2="850" y2="342" class="thin"/><line x1="710" y1="342" x2="850" y2="342" class="dim"/><text x="780" y="337" class="dimtxt" text-anchor="middle">局部宽70</text> <line x1="742" y1="180" x2="687" y2="180" class="thin"/><line x1="742" y1="210" x2="687" y2="210" class="thin"/><line x1="687" y1="180" x2="687" y2="210" class="dim"/><text x="681" y="195" class="dimtxt" text-anchor="end">沉孔深5</text>
    <text x="965" y="175" class="small" text-anchor="start">考点：沉孔大径、孔径、孔距、端距必须同时明确。</text> <text x="965" y="205" class="small" text-anchor="start">技术要求：孔口倒角 C1，未注圆角 R2。</text>
  
  </svg>
