<svg xmlns="http://www.w3.org/2000/svg" width="1400" height="900" viewBox="0 0 1400 900">
  <defs><marker id="arrow" viewBox="0 0 8 8" refX="4" refY="4" markerWidth="6" markerHeight="6" orient="auto-start-reverse"><path d="M0,0 L8,4 L0,8 Z" fill="#111"/></marker></defs>
  <style>
    svg{background:#fff;font-family:"Microsoft YaHei","SimSun",Arial,sans-serif}.border{fill:none;stroke:#111;stroke-width:1.4}.thick{fill:none;stroke:#111;stroke-width:2.8;stroke-linejoin:round;stroke-linecap:round}.thin{fill:none;stroke:#111;stroke-width:1.15;stroke-linejoin:round}.hidden{fill:none;stroke:#111;stroke-width:1.05;stroke-dasharray:8 5}.center,.centerline{fill:none;stroke:#111;stroke-width:1;stroke-dasharray:18 5 3 5}.void{fill:none;stroke:#111;stroke-width:1.2}.hatch{stroke:#111;stroke-width:.8}.dim{fill:none;stroke:#111;stroke-width:1;marker-start:url(#arrow);marker-end:url(#arrow)}.txt{font-size:18px;fill:#111}.dimtxt{font-size:16px;fill:#111}.small{font-size:15px;fill:#111}.label{font-size:20px;font-weight:700;fill:#111}
  </style>
  <rect x="40" y="35" width="1320" height="820" class="border" /><rect x="880" y="735" width="480" height="120" class="thin" /><line x1="880" y1="770" x2="1360" y2="770" class="thin"/><line x1="880" y1="805" x2="1360" y2="805" class="thin"/><line x1="995" y1="735" x2="995" y2="855" class="thin"/><line x1="1130" y1="735" x2="1130" y2="855" class="thin"/><line x1="1240" y1="735" x2="1240" y2="855" class="thin"/><text x="938" y="759" class="small" text-anchor="middle">图名</text><text x="1060" y="759" class="small" text-anchor="middle">轴套全剖零件图</text><text x="1185" y="759" class="small" text-anchor="middle">图号</text><text x="1300" y="759" class="small" text-anchor="middle">DRAW-007</text><text x="938" y="794" class="small" text-anchor="middle">材料</text><text x="1060" y="794" class="txt" text-anchor="middle">45钢</text><text x="1185" y="794" class="small" text-anchor="middle">比例</text><text x="1300" y="794" class="small" text-anchor="middle">1:2</text><text x="938" y="829" class="small" text-anchor="middle">单位</text><text x="1060" y="829" class="small" text-anchor="middle">mm</text><text x="1185" y="829" class="small" text-anchor="middle">工造星球</text><text x="1300" y="829" class="small" text-anchor="middle">审核</text>
  <text x="700" y="65" class="label" text-anchor="middle">轴套全剖零件图</text>
  
    <pattern id="p7" width="8" height="8" patternUnits="userSpaceOnUse" patternTransform="rotate(45)"><line x1="0" y1="0" x2="0" y2="8" class="hatch"/></pattern>
    <text x="390" y="110" class="label" text-anchor="middle">主视图（全剖）</text> <text x="395" y="438" class="label" text-anchor="middle">端视图</text> <text x="790" y="110" class="label" text-anchor="middle">油槽局部放大</text>
    <path d="M150 190 H620 V250 H540 V285 H260 V250 H150 Z" class="thick" fill="url(#p7)"/>
    <path d="M150 210 H620 M150 232 H620" class="void"/> <line x1="125" y1="220" x2="645" y2="220" class="center"/><line x1="385" y1="145" x2="385" y2="295" class="center"/>
    <path d="M360 190 q24 28 48 0 M455 250 q24 -28 48 0" class="thin" fill="none"/>
    <line x1="150" y1="285" x2="150" y2="327" class="thin"/><line x1="620" y1="285" x2="620" y2="327" class="thin"/><line x1="150" y1="327" x2="620" y2="327" class="dim"/><text x="385" y="322" class="dimtxt" text-anchor="middle">总长120</text> <line x1="260" y1="285" x2="260" y2="365" class="thin"/><line x1="540" y1="285" x2="540" y2="365" class="thin"/><line x1="260" y1="365" x2="540" y2="365" class="dim"/><text x="400" y="360" class="dimtxt" text-anchor="middle">台阶长70</text> <line x1="625" y1="190" x2="673" y2="190" class="thin"/><line x1="625" y1="250" x2="673" y2="250" class="thin"/><line x1="673" y1="190" x2="673" y2="250" class="dim"/><text x="667" y="220" class="dimtxt" text-anchor="end">Ø56</text> <line x1="135" y1="210" x2="100" y2="210" class="thin"/><line x1="135" y1="232" x2="100" y2="232" class="thin"/><line x1="100" y1="210" x2="100" y2="232" class="dim"/><text x="94" y="221" class="dimtxt" text-anchor="end">Ø28H7</text>
    <circle cx="395" cy="535" r="78" class="thick" /> <circle cx="395" cy="535" r="32" class="thin" /> <line x1="302.5" y1="535" x2="487.5" y2="535" class="center"/><line x1="395" y1="442.5" x2="395" y2="627.5" class="center"/>
    <path d="M720 185 H870 V285 H720 Z M755 230 q40 -48 80 0" class="thin" fill="none"/> <text x="795" y="315" class="small" text-anchor="middle">油槽宽4 深1.5</text>
    <text x="960" y="170" class="label" text-anchor="start">技术要求：</text> <text x="960" y="202" class="small" text-anchor="start">1. 内孔 Ø28H7，Ra1.6。</text> <text x="960" y="230" class="small" text-anchor="start">2. 孔腔不得画剖面线。</text> <text x="960" y="258" class="small" text-anchor="start">3. 两端倒角 1×45°。</text>
  
  </svg>
