<svg xmlns="http://www.w3.org/2000/svg" width="1400" height="900" viewBox="0 0 1400 900">
  <defs><marker id="arrow" viewBox="0 0 8 8" refX="4" refY="4" markerWidth="6" markerHeight="6" orient="auto-start-reverse"><path d="M0,0 L8,4 L0,8 Z" fill="#111"/></marker></defs>
  <style>
    svg{background:#fff;font-family:"Microsoft YaHei","SimSun",Arial,sans-serif}.border{fill:none;stroke:#111;stroke-width:1.4}.thick{fill:none;stroke:#111;stroke-width:2.8;stroke-linejoin:round;stroke-linecap:round}.thin{fill:none;stroke:#111;stroke-width:1.15;stroke-linejoin:round}.hidden{fill:none;stroke:#111;stroke-width:1.05;stroke-dasharray:8 5}.center,.centerline{fill:none;stroke:#111;stroke-width:1;stroke-dasharray:18 5 3 5}.void{fill:none;stroke:#111;stroke-width:1.2}.hatch{stroke:#111;stroke-width:.8}.dim{fill:none;stroke:#111;stroke-width:1;marker-start:url(#arrow);marker-end:url(#arrow)}.txt{font-size:18px;fill:#111}.dimtxt{font-size:16px;fill:#111}.small{font-size:15px;fill:#111}.label{font-size:20px;font-weight:700;fill:#111}
  </style>
  <rect x="40" y="35" width="1320" height="820" class="border" /><rect x="880" y="735" width="480" height="120" class="thin" /><line x1="880" y1="770" x2="1360" y2="770" class="thin"/><line x1="880" y1="805" x2="1360" y2="805" class="thin"/><line x1="995" y1="735" x2="995" y2="855" class="thin"/><line x1="1130" y1="735" x2="1130" y2="855" class="thin"/><line x1="1240" y1="735" x2="1240" y2="855" class="thin"/><text x="938" y="759" class="small" text-anchor="middle">图名</text><text x="1060" y="759" class="small" text-anchor="middle">筋板支架三视图</text><text x="1185" y="759" class="small" text-anchor="middle">图号</text><text x="1300" y="759" class="small" text-anchor="middle">DRAW-004</text><text x="938" y="794" class="small" text-anchor="middle">材料</text><text x="1060" y="794" class="txt" text-anchor="middle">HT200</text><text x="1185" y="794" class="small" text-anchor="middle">比例</text><text x="1300" y="794" class="small" text-anchor="middle">1:2</text><text x="938" y="829" class="small" text-anchor="middle">单位</text><text x="1060" y="829" class="small" text-anchor="middle">mm</text><text x="1185" y="829" class="small" text-anchor="middle">工造星球</text><text x="1300" y="829" class="small" text-anchor="middle">审核</text>
  <text x="700" y="65" class="label" text-anchor="middle">筋板支架三视图</text>
  
    <pattern id="p4" width="8" height="8" patternUnits="userSpaceOnUse" patternTransform="rotate(45)"><line x1="0" y1="0" x2="0" y2="8" class="hatch"/></pattern>
    <text x="260" y="92" class="label" text-anchor="middle">主视图</text> <text x="260" y="425" class="label" text-anchor="middle">俯视图</text> <text x="735" y="92" class="label" text-anchor="middle">左视图</text>
    <rect x="120" y="260" width="295" height="46" class="thick" /> <rect x="245" y="125" width="62" height="135" class="thick" /> <circle cx="276" cy="182" r="28" class="thin" /> <line x1="231" y1="182" x2="321" y2="182" class="center"/><line x1="276" y1="134.5" x2="276" y2="229.5" class="center"/>
    <path d="M245 260 L200 260 L245 190 Z M307 260 L355 260 L307 190 Z" class="thick" fill="none"/>
    <circle cx="165" cy="283" r="12" class="thin" /> <circle cx="370" cy="283" r="12" class="thin" /> <line x1="120" y1="306" x2="120" y2="348" class="thin"/><line x1="415" y1="306" x2="415" y2="348" class="thin"/><line x1="120" y1="348" x2="415" y2="348" class="dim"/><text x="267.5" y="343" class="dimtxt" text-anchor="middle">140</text> <line x1="165" y1="283" x2="165" y2="368" class="thin"/><line x1="370" y1="283" x2="370" y2="368" class="thin"/><line x1="165" y1="368" x2="370" y2="368" class="dim"/><text x="267.5" y="363" class="dimtxt" text-anchor="middle">2×Ø11通孔，孔距100</text> <line x1="245" y1="125" x2="187" y2="125" class="thin"/><line x1="245" y1="306" x2="187" y2="306" class="thin"/><line x1="187" y1="125" x2="187" y2="306" class="dim"/><text x="181" y="215.5" class="dimtxt" text-anchor="end">90</text>
    <rect x="120" y="485" width="295" height="96" class="thick" /> <rect x="245" y="485" width="62" height="96" class="thin" /> <circle cx="165" cy="533" r="12" class="thin" /> <circle cx="370" cy="533" r="12" class="thin" /> <line x1="276" y1="485" x2="276" y2="581" class="center"/> <line x1="120" y1="581" x2="120" y2="625" class="thin"/><line x1="415" y1="581" x2="415" y2="625" class="thin"/><line x1="120" y1="625" x2="415" y2="625" class="dim"/><text x="267.5" y="620" class="dimtxt" text-anchor="middle">140</text> <line x1="120" y1="485" x2="78" y2="485" class="thin"/><line x1="120" y1="581" x2="78" y2="581" class="thin"/><line x1="78" y1="485" x2="78" y2="581" class="dim"/><text x="72" y="533" class="dimtxt" text-anchor="end">60</text>
    <rect x="675" y="260" width="96" height="46" class="thick" /> <rect x="700" y="125" width="46" height="135" class="thick" /> <circle cx="723" cy="182" r="28" class="hidden" /> <line x1="678" y1="182" x2="768" y2="182" class="center"/><line x1="723" y1="134.5" x2="723" y2="229.5" class="center"/>
    <path d="M700 260 L675 260 L700 205 Z M746 260 L771 260 L746 205 Z" class="thin" fill="none"/> <line x1="675" y1="306" x2="675" y2="348" class="thin"/><line x1="771" y1="306" x2="771" y2="348" class="thin"/><line x1="675" y1="348" x2="771" y2="348" class="dim"/><text x="723" y="343" class="dimtxt" text-anchor="middle">60</text>
    <text x="960" y="170" class="label" text-anchor="start">技术要求：</text> <text x="960" y="202" class="small" text-anchor="start">1. 肋板厚 10，两侧对称。</text> <text x="960" y="230" class="small" text-anchor="start">2. 竖板孔中心高 62。</text> <text x="960" y="258" class="small" text-anchor="start">3. 主、俯、左视图孔位必须投影一致。</text>
  
  </svg>
