<svg xmlns="http://www.w3.org/2000/svg" width="1400" height="900" viewBox="0 0 1400 900">
  <defs><marker id="arrow" viewBox="0 0 8 8" refX="4" refY="4" markerWidth="6" markerHeight="6" orient="auto-start-reverse"><path d="M0,0 L8,4 L0,8 Z" fill="#111"/></marker></defs>
  <style>
    svg{background:#fff;font-family:"Microsoft YaHei","SimSun",Arial,sans-serif}.border{fill:none;stroke:#111;stroke-width:1.4}.thick{fill:none;stroke:#111;stroke-width:2.8;stroke-linejoin:round;stroke-linecap:round}.thin{fill:none;stroke:#111;stroke-width:1.15;stroke-linejoin:round}.hidden{fill:none;stroke:#111;stroke-width:1.05;stroke-dasharray:8 5}.center,.centerline{fill:none;stroke:#111;stroke-width:1;stroke-dasharray:18 5 3 5}.void{fill:none;stroke:#111;stroke-width:1.2}.hatch{stroke:#111;stroke-width:.8}.dim{fill:none;stroke:#111;stroke-width:1;marker-start:url(#arrow);marker-end:url(#arrow)}.txt{font-size:18px;fill:#111}.dimtxt{font-size:16px;fill:#111}.small{font-size:15px;fill:#111}.label{font-size:20px;font-weight:700;fill:#111}
  </style>
  <rect x="40" y="35" width="1320" height="820" class="border" /><rect x="880" y="735" width="480" height="120" class="thin" /><line x1="880" y1="770" x2="1360" y2="770" class="thin"/><line x1="880" y1="805" x2="1360" y2="805" class="thin"/><line x1="995" y1="735" x2="995" y2="855" class="thin"/><line x1="1130" y1="735" x2="1130" y2="855" class="thin"/><line x1="1240" y1="735" x2="1240" y2="855" class="thin"/><text x="938" y="759" class="small" text-anchor="middle">图名</text><text x="1060" y="759" class="small" text-anchor="middle">肋板底座三视图</text><text x="1185" y="759" class="small" text-anchor="middle">图号</text><text x="1300" y="759" class="small" text-anchor="middle">DRAW-017</text><text x="938" y="794" class="small" text-anchor="middle">材料</text><text x="1060" y="794" class="txt" text-anchor="middle">HT200</text><text x="1185" y="794" class="small" text-anchor="middle">比例</text><text x="1300" y="794" class="small" text-anchor="middle">1:2</text><text x="938" y="829" class="small" text-anchor="middle">单位</text><text x="1060" y="829" class="small" text-anchor="middle">mm</text><text x="1185" y="829" class="small" text-anchor="middle">工造星球</text><text x="1300" y="829" class="small" text-anchor="middle">审核</text>
  <text x="700" y="65" class="label" text-anchor="middle">肋板底座三视图</text>
  
    <text x="320" y="105" class="label" text-anchor="middle">主视图</text> <text x="320" y="450" class="label" text-anchor="middle">俯视图</text> <text x="785" y="105" class="label" text-anchor="middle">左视图</text>
    <path d="M135 285 H520 V330 H135 Z M225 190 H430 V285 H225 Z" class="thick" fill="none"/>
    <path d="M225 285 L300 205 L300 285 M430 285 L355 205 L355 285" class="thick" fill="none"/>
    <circle cx="185" cy="307" r="13" class="thin" /> <circle cx="470" cy="307" r="13" class="thin" /> <line x1="112" y1="260" x2="542" y2="260" class="center"/><line x1="327" y1="170" x2="327" y2="350" class="center"/>
    <line x1="135" y1="330" x2="135" y2="372" class="thin"/><line x1="520" y1="330" x2="520" y2="372" class="thin"/><line x1="135" y1="372" x2="520" y2="372" class="dim"/><text x="327.5" y="367" class="dimtxt" text-anchor="middle">190</text> <line x1="185" y1="307" x2="185" y2="395" class="thin"/><line x1="470" y1="307" x2="470" y2="395" class="thin"/><line x1="185" y1="395" x2="470" y2="395" class="dim"/><text x="327.5" y="390" class="dimtxt" text-anchor="middle">2×Ø13通孔，孔距140</text>
    <path d="M135 525 H520 V625 H135 Z M225 525 H430 V625 H225 Z" class="thick" fill="none"/>
    <path d="M260 625 L305 525 M395 625 L350 525" class="thin" fill="none"/> <circle cx="185" cy="575" r="13" class="thin" /> <circle cx="470" cy="575" r="13" class="thin" /> <line x1="112" y1="575" x2="542" y2="575" class="center"/><line x1="327" y1="515" x2="327" y2="635" class="center"/>
    <rect x="720" y="250" width="130" height="80" class="thick" /> <rect x="755" y="165" width="60" height="85" class="thick" /> <path d="M755 250 L720 250 L755 205 M815 250 L850 250 L815 205" class="thin" fill="none"/>
    <text x="960" y="175" class="small" text-anchor="start">考点：肋板在主视图、俯视图和左视图中都要对应。</text> <text x="960" y="205" class="small" text-anchor="start">安装孔中心距不能只在一个视图中孤立出现。</text>
  
  </svg>
