<svg xmlns="http://www.w3.org/2000/svg" width="1400" height="900" viewBox="0 0 1400 900">
  <defs><marker id="arrow" viewBox="0 0 8 8" refX="4" refY="4" markerWidth="6" markerHeight="6" orient="auto-start-reverse"><path d="M0,0 L8,4 L0,8 Z" fill="#111"/></marker></defs>
  <style>
    svg{background:#fff;font-family:"Microsoft YaHei","SimSun",Arial,sans-serif}.border{fill:none;stroke:#111;stroke-width:1.4}.thick{fill:none;stroke:#111;stroke-width:2.8;stroke-linejoin:round;stroke-linecap:round}.thin{fill:none;stroke:#111;stroke-width:1.15;stroke-linejoin:round}.hidden{fill:none;stroke:#111;stroke-width:1.05;stroke-dasharray:8 5}.center,.centerline{fill:none;stroke:#111;stroke-width:1;stroke-dasharray:18 5 3 5}.void{fill:none;stroke:#111;stroke-width:1.2}.hatch{stroke:#111;stroke-width:.8}.dim{fill:none;stroke:#111;stroke-width:1;marker-start:url(#arrow);marker-end:url(#arrow)}.txt{font-size:18px;fill:#111}.dimtxt{font-size:16px;fill:#111}.small{font-size:15px;fill:#111}.label{font-size:20px;font-weight:700;fill:#111}
  </style>
  <rect x="40" y="35" width="1320" height="820" class="border" /><rect x="880" y="735" width="480" height="120" class="thin" /><line x1="880" y1="770" x2="1360" y2="770" class="thin"/><line x1="880" y1="805" x2="1360" y2="805" class="thin"/><line x1="995" y1="735" x2="995" y2="855" class="thin"/><line x1="1130" y1="735" x2="1130" y2="855" class="thin"/><line x1="1240" y1="735" x2="1240" y2="855" class="thin"/><text x="938" y="759" class="small" text-anchor="middle">图名</text><text x="1060" y="759" class="small" text-anchor="middle">端盖局部剖与螺纹孔</text><text x="1185" y="759" class="small" text-anchor="middle">图号</text><text x="1300" y="759" class="small" text-anchor="middle">DRAW-016</text><text x="938" y="794" class="small" text-anchor="middle">材料</text><text x="1060" y="794" class="txt" text-anchor="middle">HT200</text><text x="1185" y="794" class="small" text-anchor="middle">比例</text><text x="1300" y="794" class="small" text-anchor="middle">1:2</text><text x="938" y="829" class="small" text-anchor="middle">单位</text><text x="1060" y="829" class="small" text-anchor="middle">mm</text><text x="1185" y="829" class="small" text-anchor="middle">工造星球</text><text x="1300" y="829" class="small" text-anchor="middle">审核</text>
  <text x="700" y="65" class="label" text-anchor="middle">端盖局部剖与螺纹孔</text>
  
    <pattern id="p16" width="8" height="8" patternUnits="userSpaceOnUse" patternTransform="rotate(45)"><line x1="0" y1="0" x2="0" y2="8" class="hatch"/></pattern>
    <text x="305" y="105" class="label" text-anchor="middle">主视图（局部剖）</text> <text x="760" y="105" class="label" text-anchor="middle">端面视图</text>
    <path d="M150 205 H460 V295 H150 Z M220 230 H390 V270 H220 Z" class="thick" fill="none"/>
    <path d="M305 205 H460 V295 H305 Z M340 230 H390 V270 H340 Z" fill="url(#p16)" class="thin"/>
    <path d="M305 205 q-22 20 0 40 q-22 20 0 40" class="thin" fill="none"/> <line x1="135" y1="250" x2="475" y2="250" class="center"/><line x1="305" y1="185" x2="305" y2="315" class="center"/>
    <text x="250" y="315" class="small" text-anchor="middle">M10-6H 深16，钻深20</text> <line x1="150" y1="295" x2="150" y2="337" class="thin"/><line x1="460" y1="295" x2="460" y2="337" class="thin"/><line x1="150" y1="337" x2="460" y2="337" class="dim"/><text x="305" y="332" class="dimtxt" text-anchor="middle">厚度 28</text>
    <circle cx="760" cy="250" r="112" class="thick" /> <circle cx="760" cy="250" r="45" class="thin" /> <line x1="630" y1="250" x2="890" y2="250" class="center"/><line x1="760" y1="120" x2="760" y2="380" class="center"/>
    <circle cx="815.1543289325507" cy="305.1543289325507" r="10" class="thin" /><circle cx="704.8456710674493" cy="305.1543289325507" r="10" class="thin" /><circle cx="704.8456710674493" cy="194.8456710674493" r="10" class="thin" /><circle cx="815.1543289325507" cy="194.84567106744927" r="10" class="thin" />
    <text x="760" y="392" class="small" text-anchor="middle">4×M10-6H 深16</text>
    <text x="960" y="175" class="small" text-anchor="start">考点：盲螺纹孔要区分有效螺纹深度和钻孔深度。</text> <text x="960" y="205" class="small" text-anchor="start">局部剖只揭示螺纹孔附近结构。</text>
  
  </svg>
