<svg xmlns="http://www.w3.org/2000/svg" width="1400" height="900" viewBox="0 0 1400 900">
  <defs><marker id="arrow" viewBox="0 0 8 8" refX="4" refY="4" markerWidth="6" markerHeight="6" orient="auto-start-reverse"><path d="M0,0 L8,4 L0,8 Z" fill="#111"/></marker></defs>
  <style>
    svg{background:#fff;font-family:"Microsoft YaHei","SimSun",Arial,sans-serif}.border{fill:none;stroke:#111;stroke-width:1.4}.thick{fill:none;stroke:#111;stroke-width:2.8;stroke-linejoin:round;stroke-linecap:round}.thin{fill:none;stroke:#111;stroke-width:1.15;stroke-linejoin:round}.hidden{fill:none;stroke:#111;stroke-width:1.05;stroke-dasharray:8 5}.center,.centerline{fill:none;stroke:#111;stroke-width:1;stroke-dasharray:18 5 3 5}.void{fill:none;stroke:#111;stroke-width:1.2}.hatch{stroke:#111;stroke-width:.8}.dim{fill:none;stroke:#111;stroke-width:1;marker-start:url(#arrow);marker-end:url(#arrow)}.txt{font-size:18px;fill:#111}.dimtxt{font-size:16px;fill:#111}.small{font-size:15px;fill:#111}.label{font-size:20px;font-weight:700;fill:#111}
  </style>
  <rect x="40" y="35" width="1320" height="820" class="border" /><rect x="880" y="735" width="480" height="120" class="thin" /><line x1="880" y1="770" x2="1360" y2="770" class="thin"/><line x1="880" y1="805" x2="1360" y2="805" class="thin"/><line x1="995" y1="735" x2="995" y2="855" class="thin"/><line x1="1130" y1="735" x2="1130" y2="855" class="thin"/><line x1="1240" y1="735" x2="1240" y2="855" class="thin"/><text x="938" y="759" class="small" text-anchor="middle">图名</text><text x="1060" y="759" class="small" text-anchor="middle">小箱体剖视图</text><text x="1185" y="759" class="small" text-anchor="middle">图号</text><text x="1300" y="759" class="small" text-anchor="middle">DRAW-009</text><text x="938" y="794" class="small" text-anchor="middle">材料</text><text x="1060" y="794" class="txt" text-anchor="middle">HT200</text><text x="1185" y="794" class="small" text-anchor="middle">比例</text><text x="1300" y="794" class="small" text-anchor="middle">1:2</text><text x="938" y="829" class="small" text-anchor="middle">单位</text><text x="1060" y="829" class="small" text-anchor="middle">mm</text><text x="1185" y="829" class="small" text-anchor="middle">工造星球</text><text x="1300" y="829" class="small" text-anchor="middle">审核</text>
  <text x="700" y="65" class="label" text-anchor="middle">小箱体剖视图</text>
  
    <pattern id="p9" width="8" height="8" patternUnits="userSpaceOnUse" patternTransform="rotate(45)"><line x1="0" y1="0" x2="0" y2="8" class="hatch"/></pattern>
    <text x="330" y="92" class="label" text-anchor="middle">主视图（剖视）</text> <text x="330" y="460" class="label" text-anchor="middle">俯视图</text> <text x="790" y="92" class="label" text-anchor="middle">A-A 断面</text>
    <path d="M150 170 H510 V330 H150 Z M215 220 H445 V300 H215 Z" class="thick" fill="url(#p9)" fill-rule="evenodd"/>
    <circle cx="230" cy="245" r="12" class="void" /> <circle cx="430" cy="245" r="12" class="void" /> <line x1="130" y1="250" x2="530" y2="250" class="center"/><line x1="330" y1="155" x2="330" y2="345" class="center"/>
    <line x1="150" y1="330" x2="150" y2="372" class="thin"/><line x1="510" y1="330" x2="510" y2="372" class="thin"/><line x1="150" y1="372" x2="510" y2="372" class="dim"/><text x="330" y="367" class="dimtxt" text-anchor="middle">180</text> <line x1="150" y1="170" x2="102" y2="170" class="thin"/><line x1="150" y1="330" x2="102" y2="330" class="thin"/><line x1="102" y1="170" x2="102" y2="330" class="dim"/><text x="96" y="250" class="dimtxt" text-anchor="end">90</text> <text x="330" y="352" class="small" text-anchor="middle">壁厚 12</text>
    <rect x="150" y="515" width="360" height="115" class="thick" /> <rect x="215" y="540" width="230" height="65" class="hidden" /> <circle cx="230" cy="572" r="12" class="thin" /> <circle cx="430" cy="572" r="12" class="thin" /> <line x1="125" y1="572" x2="535" y2="572" class="center"/><line x1="330" y1="504.5" x2="330" y2="639.5" class="center"/> <line x1="150" y1="630" x2="150" y2="672" class="thin"/><line x1="510" y1="630" x2="510" y2="672" class="thin"/><line x1="150" y1="672" x2="510" y2="672" class="dim"/><text x="330" y="667" class="dimtxt" text-anchor="middle">180</text> <line x1="230" y1="572" x2="230" y2="654" class="thin"/><line x1="430" y1="572" x2="430" y2="654" class="thin"/><line x1="230" y1="654" x2="430" y2="654" class="dim"/><text x="330" y="649" class="dimtxt" text-anchor="middle">2×M10-6H 深18</text>
    <path d="M720 165 H860 V315 H720 Z M750 205 H830 V285 H750 Z" class="thin" fill="url(#p9)" fill-rule="evenodd"/> <line x1="707.5" y1="240" x2="872.5" y2="240" class="center"/><line x1="790" y1="155" x2="790" y2="325" class="center"/>
    <text x="960" y="170" class="label" text-anchor="start">技术要求：</text> <text x="960" y="202" class="small" text-anchor="start">1. 箱体内腔不得画剖面线。</text> <text x="960" y="230" class="small" text-anchor="start">2. 安装面 A 平面度 0.05。</text> <text x="960" y="258" class="small" text-anchor="start">3. 螺纹孔需标注螺纹规格和有效深度。</text>
  
  </svg>
