<svg xmlns="http://www.w3.org/2000/svg" width="1400" height="900" viewBox="0 0 1400 900">
  <defs><marker id="arrow" viewBox="0 0 8 8" refX="4" refY="4" markerWidth="6" markerHeight="6" orient="auto-start-reverse"><path d="M0,0 L8,4 L0,8 Z" fill="#111"/></marker></defs>
  <style>
    svg{background:#fff;font-family:"Microsoft YaHei","SimSun",Arial,sans-serif}.border{fill:none;stroke:#111;stroke-width:1.4}.thick{fill:none;stroke:#111;stroke-width:2.8;stroke-linejoin:round;stroke-linecap:round}.thin{fill:none;stroke:#111;stroke-width:1.15;stroke-linejoin:round}.hidden{fill:none;stroke:#111;stroke-width:1.05;stroke-dasharray:8 5}.center,.centerline{fill:none;stroke:#111;stroke-width:1;stroke-dasharray:18 5 3 5}.void{fill:none;stroke:#111;stroke-width:1.2}.hatch{stroke:#111;stroke-width:.8}.dim{fill:none;stroke:#111;stroke-width:1;marker-start:url(#arrow);marker-end:url(#arrow)}.txt{font-size:18px;fill:#111}.dimtxt{font-size:16px;fill:#111}.small{font-size:15px;fill:#111}.label{font-size:20px;font-weight:700;fill:#111}
  </style>
  <rect x="40" y="35" width="1320" height="820" class="border" /><rect x="880" y="735" width="480" height="120" class="thin" /><line x1="880" y1="770" x2="1360" y2="770" class="thin"/><line x1="880" y1="805" x2="1360" y2="805" class="thin"/><line x1="995" y1="735" x2="995" y2="855" class="thin"/><line x1="1130" y1="735" x2="1130" y2="855" class="thin"/><line x1="1240" y1="735" x2="1240" y2="855" class="thin"/><text x="938" y="759" class="small" text-anchor="middle">图名</text><text x="1060" y="759" class="small" text-anchor="middle">轴承盖全剖图</text><text x="1185" y="759" class="small" text-anchor="middle">图号</text><text x="1300" y="759" class="small" text-anchor="middle">DRAW-013</text><text x="938" y="794" class="small" text-anchor="middle">材料</text><text x="1060" y="794" class="txt" text-anchor="middle">HT200</text><text x="1185" y="794" class="small" text-anchor="middle">比例</text><text x="1300" y="794" class="small" text-anchor="middle">1:2</text><text x="938" y="829" class="small" text-anchor="middle">单位</text><text x="1060" y="829" class="small" text-anchor="middle">mm</text><text x="1185" y="829" class="small" text-anchor="middle">工造星球</text><text x="1300" y="829" class="small" text-anchor="middle">审核</text>
  <text x="700" y="65" class="label" text-anchor="middle">轴承盖全剖图</text>
  
    <pattern id="p13" width="8" height="8" patternUnits="userSpaceOnUse" patternTransform="rotate(45)"><line x1="0" y1="0" x2="0" y2="8" class="hatch"/></pattern>
    <text x="320" y="105" class="label" text-anchor="middle">主视图（全剖）</text> <text x="770" y="105" class="label" text-anchor="middle">端面视图</text>
    <path d="M150 205 H235 V165 H405 V205 H495 V300 H405 V340 H235 V300 H150 Z M220 235 H425 V270 H220 Z" class="thick" fill="url(#p13)" fill-rule="evenodd"/>
    <path d="M220 235 H425 M220 270 H425" class="void"/> <line x1="132" y1="252" x2="512" y2="252" class="center"/><line x1="322" y1="147" x2="322" y2="357" class="center"/>
    <path d="M260 165 H380 V190 H260 Z" class="thin" fill="white"/> <text x="320" y="153" class="small" text-anchor="middle">密封槽 5×3</text>
    <line x1="150" y1="340" x2="150" y2="382" class="thin"/><line x1="495" y1="340" x2="495" y2="382" class="thin"/><line x1="150" y1="382" x2="495" y2="382" class="dim"/><text x="322.5" y="377" class="dimtxt" text-anchor="middle">总厚 42</text> <line x1="235" y1="165" x2="235" y2="129" class="thin"/><line x1="405" y1="165" x2="405" y2="129" class="thin"/><line x1="235" y1="129" x2="405" y2="129" class="dim"/><text x="320" y="124" class="dimtxt" text-anchor="middle">台阶 Ø96</text> <line x1="505" y1="235" x2="557" y2="235" class="thin"/><line x1="505" y1="270" x2="557" y2="270" class="thin"/><line x1="557" y1="235" x2="557" y2="270" class="dim"/><text x="551" y="252.5" class="dimtxt" text-anchor="end">Ø52H8</text>
    <circle cx="770" cy="255" r="118" class="thick" /> <circle cx="770" cy="255" r="82" class="centerline" /> <circle cx="770" cy="255" r="42" class="thin" /> <line x1="630" y1="255" x2="910" y2="255" class="center"/><line x1="770" y1="115" x2="770" y2="395" class="center"/>
    <circle cx="827.9827560572969" cy="312.9827560572969" r="10" class="thin" /><circle cx="712.0172439427031" cy="312.9827560572969" r="10" class="thin" /><circle cx="712.0172439427031" cy="197.01724394270312" r="10" class="thin" /><circle cx="827.9827560572969" cy="197.0172439427031" r="10" class="thin" />
    <text x="770" y="398" class="small" text-anchor="middle">4×Ø9通孔，沉孔Ø16深4</text>
    <text x="960" y="175" class="small" text-anchor="start">考点：密封槽、台阶孔与沉孔深度分层表达。</text> <text x="960" y="205" class="small" text-anchor="start">中心孔与端面 A 垂直度 0.04。</text>
  
  </svg>
