<svg xmlns="http://www.w3.org/2000/svg" width="1400" height="900" viewBox="0 0 1400 900">
  <defs><marker id="arrow" viewBox="0 0 8 8" refX="4" refY="4" markerWidth="6" markerHeight="6" orient="auto-start-reverse"><path d="M0,0 L8,4 L0,8 Z" fill="#111"/></marker></defs>
  <style>
    svg{background:#fff;font-family:"Microsoft YaHei","SimSun",Arial,sans-serif}.border{fill:none;stroke:#111;stroke-width:1.4}.thick{fill:none;stroke:#111;stroke-width:2.8;stroke-linejoin:round;stroke-linecap:round}.thin{fill:none;stroke:#111;stroke-width:1.15;stroke-linejoin:round}.hidden{fill:none;stroke:#111;stroke-width:1.05;stroke-dasharray:8 5}.center,.centerline{fill:none;stroke:#111;stroke-width:1;stroke-dasharray:18 5 3 5}.void{fill:none;stroke:#111;stroke-width:1.2}.hatch{stroke:#111;stroke-width:.8}.dim{fill:none;stroke:#111;stroke-width:1;marker-start:url(#arrow);marker-end:url(#arrow)}.txt{font-size:18px;fill:#111}.dimtxt{font-size:16px;fill:#111}.small{font-size:15px;fill:#111}.label{font-size:20px;font-weight:700;fill:#111}
  </style>
  <rect x="40" y="35" width="1320" height="820" class="border" /><rect x="880" y="735" width="480" height="120" class="thin" /><line x1="880" y1="770" x2="1360" y2="770" class="thin"/><line x1="880" y1="805" x2="1360" y2="805" class="thin"/><line x1="995" y1="735" x2="995" y2="855" class="thin"/><line x1="1130" y1="735" x2="1130" y2="855" class="thin"/><line x1="1240" y1="735" x2="1240" y2="855" class="thin"/><text x="938" y="759" class="small" text-anchor="middle">图名</text><text x="1060" y="759" class="small" text-anchor="middle">夹紧压板零件图</text><text x="1185" y="759" class="small" text-anchor="middle">图号</text><text x="1300" y="759" class="small" text-anchor="middle">DRAW-018</text><text x="938" y="794" class="small" text-anchor="middle">材料</text><text x="1060" y="794" class="txt" text-anchor="middle">HT200</text><text x="1185" y="794" class="small" text-anchor="middle">比例</text><text x="1300" y="794" class="small" text-anchor="middle">1:2</text><text x="938" y="829" class="small" text-anchor="middle">单位</text><text x="1060" y="829" class="small" text-anchor="middle">mm</text><text x="1185" y="829" class="small" text-anchor="middle">工造星球</text><text x="1300" y="829" class="small" text-anchor="middle">审核</text>
  <text x="700" y="65" class="label" text-anchor="middle">夹紧压板零件图</text>
  
    <text x="315" y="105" class="label" text-anchor="middle">主视图</text> <text x="315" y="425" class="label" text-anchor="middle">俯视图</text> <text x="770" y="105" class="label" text-anchor="middle">A处局部放大</text>
    <path d="M140 230 H500 L470 310 H170 Z" class="thick" fill="none"/> <circle cx="205" cy="270" r="13" class="thin" /> <circle cx="435" cy="270" r="13" class="thin" />
    <line x1="140" y1="310" x2="140" y2="352" class="thin"/><line x1="500" y1="310" x2="500" y2="352" class="thin"/><line x1="140" y1="352" x2="500" y2="352" class="dim"/><text x="320" y="347" class="dimtxt" text-anchor="middle">160</text> <line x1="170" y1="310" x2="170" y2="390" class="thin"/><line x1="470" y1="310" x2="470" y2="390" class="thin"/><line x1="170" y1="390" x2="470" y2="390" class="dim"/><text x="320" y="385" class="dimtxt" text-anchor="middle">对称斜边</text>
    <path d="M140 505 H500 V590 H140 Z" class="thick" fill="none"/>
    <path d="M235 548 a30 20 0 1 0 100 0 a30 20 0 1 0 -100 0" class="thin" fill="none"/> <line x1="210" y1="548" x2="360" y2="548" class="center"/><line x1="285" y1="503" x2="285" y2="593" class="center"/>
    <circle cx="205" cy="548" r="13" class="thin" /> <circle cx="435" cy="548" r="13" class="thin" /> <line x1="140" y1="590" x2="140" y2="632" class="thin"/><line x1="500" y1="590" x2="500" y2="632" class="thin"/><line x1="140" y1="632" x2="500" y2="632" class="dim"/><text x="320" y="627" class="dimtxt" text-anchor="middle">160</text> <text x="285" y="630" class="small" text-anchor="middle">长圆孔 18×70</text>
    <path d="M705 215 H850 V305 H705 Z M745 260 a20 14 0 1 0 65 0 a20 14 0 1 0 -65 0" class="thin" fill="none"/> <text x="778" y="340" class="small" text-anchor="middle">局部放大 2:1</text>
    <text x="960" y="175" class="small" text-anchor="start">技术要求：长圆孔用于夹紧调整，需标宽度和中心距。</text> <text x="960" y="205" class="small" text-anchor="start">未注倒角 C1，锐边倒钝。</text>
  
  </svg>
