<svg xmlns="http://www.w3.org/2000/svg" width="1400" height="900" viewBox="0 0 1400 900">
  <defs><marker id="arrow" viewBox="0 0 8 8" refX="4" refY="4" markerWidth="6" markerHeight="6" orient="auto-start-reverse"><path d="M0,0 L8,4 L0,8 Z" fill="#111"/></marker></defs>
  <style>
    svg{background:#fff;font-family:"Microsoft YaHei","SimSun",Arial,sans-serif}.border{fill:none;stroke:#111;stroke-width:1.4}.thick{fill:none;stroke:#111;stroke-width:2.8;stroke-linejoin:round;stroke-linecap:round}.thin{fill:none;stroke:#111;stroke-width:1.15;stroke-linejoin:round}.hidden{fill:none;stroke:#111;stroke-width:1.05;stroke-dasharray:8 5}.center,.centerline{fill:none;stroke:#111;stroke-width:1;stroke-dasharray:18 5 3 5}.void{fill:none;stroke:#111;stroke-width:1.2}.hatch{stroke:#111;stroke-width:.8}.dim{fill:none;stroke:#111;stroke-width:1;marker-start:url(#arrow);marker-end:url(#arrow)}.txt{font-size:18px;fill:#111}.dimtxt{font-size:16px;fill:#111}.small{font-size:15px;fill:#111}.label{font-size:20px;font-weight:700;fill:#111}
  </style>
  <rect x="40" y="35" width="1320" height="820" class="border" /><rect x="880" y="735" width="480" height="120" class="thin" /><line x1="880" y1="770" x2="1360" y2="770" class="thin"/><line x1="880" y1="805" x2="1360" y2="805" class="thin"/><line x1="995" y1="735" x2="995" y2="855" class="thin"/><line x1="1130" y1="735" x2="1130" y2="855" class="thin"/><line x1="1240" y1="735" x2="1240" y2="855" class="thin"/><text x="938" y="759" class="small" text-anchor="middle">图名</text><text x="1060" y="759" class="small" text-anchor="middle">泵盖局部剖视图</text><text x="1185" y="759" class="small" text-anchor="middle">图号</text><text x="1300" y="759" class="small" text-anchor="middle">DRAW-005</text><text x="938" y="794" class="small" text-anchor="middle">材料</text><text x="1060" y="794" class="txt" text-anchor="middle">HT200</text><text x="1185" y="794" class="small" text-anchor="middle">比例</text><text x="1300" y="794" class="small" text-anchor="middle">1:2</text><text x="938" y="829" class="small" text-anchor="middle">单位</text><text x="1060" y="829" class="small" text-anchor="middle">mm</text><text x="1185" y="829" class="small" text-anchor="middle">工造星球</text><text x="1300" y="829" class="small" text-anchor="middle">审核</text>
  <text x="700" y="65" class="label" text-anchor="middle">泵盖局部剖视图</text>
  
    <pattern id="p5" width="8" height="8" patternUnits="userSpaceOnUse" patternTransform="rotate(45)"><line x1="0" y1="0" x2="0" y2="8" class="hatch"/></pattern>
    <text x="315" y="105" class="label" text-anchor="middle">主视图（局部剖）</text> <text x="770" y="105" class="label" text-anchor="middle">端面孔系</text>
    <path d="M160 180 H480 V315 H160 Z M230 220 H410 V280 H230 Z" class="thick" fill="none"/>
    <path d="M318 180 H480 V315 H318 Z M350 220 H410 V280 H350 Z" fill="url(#p5)" class="thin"/>
    <path d="M318 180 q-25 18 0 36 q-25 18 0 36 q-25 18 0 36 q-25 18 0 27" class="thin" fill="none"/>
    <line x1="145" y1="247" x2="495" y2="247" class="center"/><line x1="320" y1="159.5" x2="320" y2="334.5" class="center"/> <line x1="160" y1="315" x2="160" y2="357" class="thin"/><line x1="480" y1="315" x2="480" y2="357" class="thin"/><line x1="160" y1="357" x2="480" y2="357" class="dim"/><text x="320" y="352" class="dimtxt" text-anchor="middle">外径投影 150</text> <text x="255" y="205" class="small" text-anchor="middle">密封槽 6×3</text> <text x="390" y="338" class="small" text-anchor="middle">局部剖揭示台阶孔</text>
    <circle cx="770" cy="250" r="120" class="thick" /> <circle cx="770" cy="250" r="82" class="centerline" /> <circle cx="770" cy="250" r="38" class="thin" /> <line x1="630" y1="250" x2="910" y2="250" class="center"/><line x1="770" y1="110" x2="770" y2="390" class="center"/>
    <circle cx="841.014083110324" cy="291" r="9" class="thin" /><circle cx="770" cy="332" r="9" class="thin" /><circle cx="698.985916889676" cy="291" r="9" class="thin" /><circle cx="698.985916889676" cy="209" r="9" class="thin" /><circle cx="770" cy="168" r="9" class="thin" /><circle cx="841.014083110324" cy="208.99999999999997" r="9" class="thin" />
    <text x="770" y="395" class="small" text-anchor="middle">6×M8-6H 深16 均布于Ø164</text>
    <text x="960" y="175" class="label" text-anchor="start">技术要求：</text> <text x="960" y="205" class="small" text-anchor="start">1. 密封面 A 对中心孔同轴度 0.03。</text> <text x="960" y="233" class="small" text-anchor="start">2. 局部剖边界用波浪线。</text>
  
  </svg>
