<svg xmlns="http://www.w3.org/2000/svg" width="1400" height="900" viewBox="0 0 1400 900">
  <defs><marker id="arrow" viewBox="0 0 8 8" refX="4" refY="4" markerWidth="6" markerHeight="6" orient="auto-start-reverse"><path d="M0,0 L8,4 L0,8 Z" fill="#111"/></marker></defs>
  <style>
    svg{background:#fff;font-family:"Microsoft YaHei","SimSun",Arial,sans-serif}.border{fill:none;stroke:#111;stroke-width:1.4}.thick{fill:none;stroke:#111;stroke-width:2.8;stroke-linejoin:round;stroke-linecap:round}.thin{fill:none;stroke:#111;stroke-width:1.15;stroke-linejoin:round}.hidden{fill:none;stroke:#111;stroke-width:1.05;stroke-dasharray:8 5}.center,.centerline{fill:none;stroke:#111;stroke-width:1;stroke-dasharray:18 5 3 5}.void{fill:none;stroke:#111;stroke-width:1.2}.hatch{stroke:#111;stroke-width:.8}.dim{fill:none;stroke:#111;stroke-width:1;marker-start:url(#arrow);marker-end:url(#arrow)}.txt{font-size:18px;fill:#111}.dimtxt{font-size:16px;fill:#111}.small{font-size:15px;fill:#111}.label{font-size:20px;font-weight:700;fill:#111}
  </style>
  <rect x="40" y="35" width="1320" height="820" class="border" /><rect x="880" y="735" width="480" height="120" class="thin" /><line x1="880" y1="770" x2="1360" y2="770" class="thin"/><line x1="880" y1="805" x2="1360" y2="805" class="thin"/><line x1="995" y1="735" x2="995" y2="855" class="thin"/><line x1="1130" y1="735" x2="1130" y2="855" class="thin"/><line x1="1240" y1="735" x2="1240" y2="855" class="thin"/><text x="938" y="759" class="small" text-anchor="middle">图名</text><text x="1060" y="759" class="small" text-anchor="middle">叉形支架零件图</text><text x="1185" y="759" class="small" text-anchor="middle">图号</text><text x="1300" y="759" class="small" text-anchor="middle">DRAW-012</text><text x="938" y="794" class="small" text-anchor="middle">材料</text><text x="1060" y="794" class="txt" text-anchor="middle">HT200</text><text x="1185" y="794" class="small" text-anchor="middle">比例</text><text x="1300" y="794" class="small" text-anchor="middle">1:2</text><text x="938" y="829" class="small" text-anchor="middle">单位</text><text x="1060" y="829" class="small" text-anchor="middle">mm</text><text x="1185" y="829" class="small" text-anchor="middle">工造星球</text><text x="1300" y="829" class="small" text-anchor="middle">审核</text>
  <text x="700" y="65" class="label" text-anchor="middle">叉形支架零件图</text>
  
    <text x="300" y="100" class="label" text-anchor="middle">主视图</text> <text x="300" y="455" class="label" text-anchor="middle">俯视图</text> <text x="785" y="100" class="label" text-anchor="middle">左视图</text>
    <path d="M150 280 H470 V325 H150 Z M235 130 H285 V280 H235 Z M345 130 H395 V280 H345 Z" class="thick" fill="none"/>
    <circle cx="260" cy="180" r="26" class="thin" /> <circle cx="370" cy="180" r="26" class="thin" /> <line x1="217.5" y1="180" x2="302.5" y2="180" class="center"/><line x1="260" y1="135" x2="260" y2="225" class="center"/> <line x1="327.5" y1="180" x2="412.5" y2="180" class="center"/><line x1="370" y1="135" x2="370" y2="225" class="center"/>
    <circle cx="205" cy="302" r="12" class="thin" /> <circle cx="415" cy="302" r="12" class="thin" /> <line x1="150" y1="325" x2="150" y2="367" class="thin"/><line x1="470" y1="325" x2="470" y2="367" class="thin"/><line x1="150" y1="367" x2="470" y2="367" class="dim"/><text x="310" y="362" class="dimtxt" text-anchor="middle">底座长160</text> <line x1="260" y1="180" x2="260" y2="265" class="thin"/><line x1="370" y1="180" x2="370" y2="265" class="thin"/><line x1="260" y1="265" x2="370" y2="265" class="dim"/><text x="315" y="260" class="dimtxt" text-anchor="middle">两叉耳孔同轴</text>
    <path d="M150 515 H470 V600 H150 Z M235 515 H285 V600 H235 Z M345 515 H395 V600 H345 Z" class="thick" fill="none"/> <line x1="135" y1="557" x2="495" y2="557" class="center"/><line x1="315" y1="502" x2="315" y2="612" class="center"/>
    <rect x="710" y="220" width="130" height="105" class="thick" /> <rect x="742" y="120" width="66" height="100" class="thick" /> <circle cx="775" cy="170" r="28" class="hidden" /> <line x1="705" y1="170" x2="845" y2="170" class="center"/><line x1="775" y1="115" x2="775" y2="225" class="center"/>
    <text x="955" y="175" class="small" text-anchor="start">考点：两叉耳孔同轴，底座孔与叉耳孔不可混标。</text> <text x="955" y="205" class="small" text-anchor="start">几何公差：两孔轴线位置度 ⌀0.05 A。</text>
  
  </svg>
