<svg xmlns="http://www.w3.org/2000/svg" width="1400" height="900" viewBox="0 0 1400 900">
  <defs><marker id="arrow" viewBox="0 0 8 8" refX="4" refY="4" markerWidth="6" markerHeight="6" orient="auto-start-reverse"><path d="M0,0 L8,4 L0,8 Z" fill="#111"/></marker></defs>
  <style>
    svg{background:#fff;font-family:"Microsoft YaHei","SimSun",Arial,sans-serif}.border{fill:none;stroke:#111;stroke-width:1.4}.thick{fill:none;stroke:#111;stroke-width:2.8;stroke-linejoin:round;stroke-linecap:round}.thin{fill:none;stroke:#111;stroke-width:1.15;stroke-linejoin:round}.hidden{fill:none;stroke:#111;stroke-width:1.05;stroke-dasharray:8 5}.center,.centerline{fill:none;stroke:#111;stroke-width:1;stroke-dasharray:18 5 3 5}.void{fill:none;stroke:#111;stroke-width:1.2}.hatch{stroke:#111;stroke-width:.8}.dim{fill:none;stroke:#111;stroke-width:1;marker-start:url(#arrow);marker-end:url(#arrow)}.txt{font-size:18px;fill:#111}.dimtxt{font-size:16px;fill:#111}.small{font-size:15px;fill:#111}.label{font-size:20px;font-weight:700;fill:#111}
  </style>
  <rect x="40" y="35" width="1320" height="820" class="border" /><rect x="880" y="735" width="480" height="120" class="thin" /><line x1="880" y1="770" x2="1360" y2="770" class="thin"/><line x1="880" y1="805" x2="1360" y2="805" class="thin"/><line x1="995" y1="735" x2="995" y2="855" class="thin"/><line x1="1130" y1="735" x2="1130" y2="855" class="thin"/><line x1="1240" y1="735" x2="1240" y2="855" class="thin"/><text x="938" y="759" class="small" text-anchor="middle">图名</text><text x="1060" y="759" class="small" text-anchor="middle">管法兰端面图</text><text x="1185" y="759" class="small" text-anchor="middle">图号</text><text x="1300" y="759" class="small" text-anchor="middle">DRAW-014</text><text x="938" y="794" class="small" text-anchor="middle">材料</text><text x="1060" y="794" class="txt" text-anchor="middle">HT200</text><text x="1185" y="794" class="small" text-anchor="middle">比例</text><text x="1300" y="794" class="small" text-anchor="middle">1:2</text><text x="938" y="829" class="small" text-anchor="middle">单位</text><text x="1060" y="829" class="small" text-anchor="middle">mm</text><text x="1185" y="829" class="small" text-anchor="middle">工造星球</text><text x="1300" y="829" class="small" text-anchor="middle">审核</text>
  <text x="700" y="65" class="label" text-anchor="middle">管法兰端面图</text>
  
    <pattern id="p14" width="8" height="8" patternUnits="userSpaceOnUse" patternTransform="rotate(45)"><line x1="0" y1="0" x2="0" y2="8" class="hatch"/></pattern>
    <text x="310" y="105" class="label" text-anchor="middle">剖视主视图</text> <text x="780" y="105" class="label" text-anchor="middle">法兰端面图</text>
    <path d="M150 215 H245 V170 H375 V215 H470 V285 H375 V330 H245 V285 H150 Z" class="thick" fill="url(#p14)"/>
    <path d="M150 235 H470 M150 265 H470" class="void"/> <line x1="125" y1="250" x2="495" y2="250" class="center"/><line x1="310" y1="150" x2="310" y2="350" class="center"/>
    <line x1="150" y1="330" x2="150" y2="372" class="thin"/><line x1="470" y1="330" x2="470" y2="372" class="thin"/><line x1="150" y1="372" x2="470" y2="372" class="dim"/><text x="310" y="367" class="dimtxt" text-anchor="middle">法兰厚 24</text> <line x1="245" y1="170" x2="245" y2="134" class="thin"/><line x1="375" y1="170" x2="375" y2="134" class="thin"/><line x1="245" y1="134" x2="375" y2="134" class="dim"/><text x="310" y="129" class="dimtxt" text-anchor="middle">管口 Ø76</text> <line x1="485" y1="235" x2="535" y2="235" class="thin"/><line x1="485" y1="265" x2="535" y2="265" class="thin"/><line x1="535" y1="235" x2="535" y2="265" class="dim"/><text x="529" y="250" class="dimtxt" text-anchor="end">Ø50</text>
    <circle cx="780" cy="255" r="130" class="thick" /> <circle cx="780" cy="255" r="96" class="centerline" /> <circle cx="780" cy="255" r="48" class="thin" /> <line x1="630" y1="255" x2="930" y2="255" class="center"/><line x1="780" y1="105" x2="780" y2="405" class="center"/>
    <circle cx="876" cy="255" r="11" class="thin" /><circle cx="828" cy="338.1384387633061" r="11" class="thin" /><circle cx="732" cy="338.1384387633061" r="11" class="thin" /><circle cx="684" cy="255" r="11" class="thin" /><circle cx="732" cy="171.8615612366939" r="11" class="thin" /><circle cx="828" cy="171.8615612366939" r="11" class="thin" />
    <line x1="650" y1="255" x2="910" y2="255" class="center"/> <line x1="780" y1="125" x2="780" y2="385" class="center"/> <text x="780" y="408" class="small" text-anchor="middle">6×Ø13 均布于 Ø192</text>
    <text x="960" y="175" class="small" text-anchor="start">考点：法兰孔数、孔径和分布圆必须一致。</text> <text x="960" y="205" class="small" text-anchor="start">剖视图表达管口内孔，端面图表达圆周孔系。</text>
  
  </svg>
