<svg xmlns="http://www.w3.org/2000/svg" width="1400" height="900" viewBox="0 0 1400 900">
  <defs><marker id="arrow" viewBox="0 0 8 8" refX="4" refY="4" markerWidth="6" markerHeight="6" orient="auto-start-reverse"><path d="M0,0 L8,4 L0,8 Z" fill="#111"/></marker></defs>
  <style>
    svg{background:#fff;font-family:"Microsoft YaHei","SimSun",Arial,sans-serif}.border{fill:none;stroke:#111;stroke-width:1.4}.thick{fill:none;stroke:#111;stroke-width:2.8;stroke-linejoin:round;stroke-linecap:round}.thin{fill:none;stroke:#111;stroke-width:1.15;stroke-linejoin:round}.hidden{fill:none;stroke:#111;stroke-width:1.05;stroke-dasharray:8 5}.center,.centerline{fill:none;stroke:#111;stroke-width:1;stroke-dasharray:18 5 3 5}.void{fill:none;stroke:#111;stroke-width:1.2}.hatch{stroke:#111;stroke-width:.8}.dim{fill:none;stroke:#111;stroke-width:1;marker-start:url(#arrow);marker-end:url(#arrow)}.txt{font-size:18px;fill:#111}.dimtxt{font-size:16px;fill:#111}.small{font-size:15px;fill:#111}.label{font-size:20px;font-weight:700;fill:#111}
  </style>
  <rect x="40" y="35" width="1320" height="820" class="border" /><rect x="880" y="735" width="480" height="120" class="thin" /><line x1="880" y1="770" x2="1360" y2="770" class="thin"/><line x1="880" y1="805" x2="1360" y2="805" class="thin"/><line x1="995" y1="735" x2="995" y2="855" class="thin"/><line x1="1130" y1="735" x2="1130" y2="855" class="thin"/><line x1="1240" y1="735" x2="1240" y2="855" class="thin"/><text x="938" y="759" class="small" text-anchor="middle">图名</text><text x="1060" y="759" class="small" text-anchor="middle">齿轮坯剖视图</text><text x="1185" y="759" class="small" text-anchor="middle">图号</text><text x="1300" y="759" class="small" text-anchor="middle">DRAW-008</text><text x="938" y="794" class="small" text-anchor="middle">材料</text><text x="1060" y="794" class="txt" text-anchor="middle">HT200</text><text x="1185" y="794" class="small" text-anchor="middle">比例</text><text x="1300" y="794" class="small" text-anchor="middle">1:2</text><text x="938" y="829" class="small" text-anchor="middle">单位</text><text x="1060" y="829" class="small" text-anchor="middle">mm</text><text x="1185" y="829" class="small" text-anchor="middle">工造星球</text><text x="1300" y="829" class="small" text-anchor="middle">审核</text>
  <text x="700" y="65" class="label" text-anchor="middle">齿轮坯剖视图</text>
  
    <pattern id="p8" width="8" height="8" patternUnits="userSpaceOnUse" patternTransform="rotate(45)"><line x1="0" y1="0" x2="0" y2="8" class="hatch"/></pattern>
    <text x="335" y="105" class="label" text-anchor="middle">全剖主视图</text> <text x="780" y="105" class="label" text-anchor="middle">端面视图</text>
    <path d="M150 170 H230 V145 H445 V170 H520 V310 H445 V335 H230 V310 H150 Z M150 225 H520 M150 255 H520" class="thick" fill="url(#p8)"/>
    <path d="M150 225 H520 M150 255 H520" class="void"/> <line x1="120" y1="240" x2="550" y2="240" class="center"/><line x1="335" y1="130" x2="335" y2="350" class="center"/>
    <path d="M250 170 H285 V310 H250 Z M385 170 H420 V310 H385 Z" class="thin" fill="white"/>
    <line x1="150" y1="335" x2="150" y2="377" class="thin"/><line x1="520" y1="335" x2="520" y2="377" class="thin"/><line x1="150" y1="377" x2="520" y2="377" class="dim"/><text x="335" y="372" class="dimtxt" text-anchor="middle">齿坯宽 42</text> <line x1="230" y1="145" x2="230" y2="109" class="thin"/><line x1="445" y1="145" x2="445" y2="109" class="thin"/><line x1="230" y1="109" x2="445" y2="109" class="dim"/><text x="337.5" y="104" class="dimtxt" text-anchor="middle">轮毂 Ø90</text> <line x1="135" y1="170" x2="90" y2="170" class="thin"/><line x1="135" y1="310" x2="90" y2="310" class="thin"/><line x1="90" y1="170" x2="90" y2="310" class="dim"/><text x="84" y="240" class="dimtxt" text-anchor="end">轮缘 Ø160</text>
    <circle cx="780" cy="240" r="118" class="thick" /> <circle cx="780" cy="240" r="76" class="thin" /> <circle cx="780" cy="240" r="32" class="thin" /> <rect x="750" y="122" width="60" height="28" class="thin" /> <line x1="645" y1="240" x2="915" y2="240" class="center"/><line x1="780" y1="105" x2="780" y2="375" class="center"/>
    <circle cx="856" cy="240" r="11" class="thin" /><circle cx="818" cy="305.8179306876173" r="11" class="thin" /><circle cx="742" cy="305.8179306876174" r="11" class="thin" /><circle cx="704" cy="240" r="11" class="thin" /><circle cx="742" cy="174.18206931238268" r="11" class="thin" /><circle cx="818" cy="174.18206931238268" r="11" class="thin" />
    <text x="780" y="390" class="small" text-anchor="middle">6×减重孔 Ø22 均布</text> <text x="960" y="175" class="small" text-anchor="start">考点：轮毂、轮缘、腹板剖面线区域不同。</text> <text x="960" y="205" class="small" text-anchor="start">键槽在端面图中用宽度和深度表达。</text>
  
  </svg>
