<svg xmlns="http://www.w3.org/2000/svg" width="1400" height="900" viewBox="0 0 1400 900">
  <defs><marker id="arrow" viewBox="0 0 8 8" refX="4" refY="4" markerWidth="6" markerHeight="6" orient="auto-start-reverse"><path d="M0,0 L8,4 L0,8 Z" fill="#111"/></marker></defs>
  <style>
    svg{background:#fff;font-family:"Microsoft YaHei","SimSun",Arial,sans-serif}.border{fill:none;stroke:#111;stroke-width:1.4}.thick{fill:none;stroke:#111;stroke-width:2.8;stroke-linejoin:round;stroke-linecap:round}.thin{fill:none;stroke:#111;stroke-width:1.15;stroke-linejoin:round}.hidden{fill:none;stroke:#111;stroke-width:1.05;stroke-dasharray:8 5}.center,.centerline{fill:none;stroke:#111;stroke-width:1;stroke-dasharray:18 5 3 5}.void{fill:none;stroke:#111;stroke-width:1.2}.hatch{stroke:#111;stroke-width:.8}.dim{fill:none;stroke:#111;stroke-width:1;marker-start:url(#arrow);marker-end:url(#arrow)}.txt{font-size:18px;fill:#111}.dimtxt{font-size:16px;fill:#111}.small{font-size:15px;fill:#111}.label{font-size:20px;font-weight:700;fill:#111}
  </style>
  <rect x="40" y="35" width="1320" height="820" class="border" /><rect x="880" y="735" width="480" height="120" class="thin" /><line x1="880" y1="770" x2="1360" y2="770" class="thin"/><line x1="880" y1="805" x2="1360" y2="805" class="thin"/><line x1="995" y1="735" x2="995" y2="855" class="thin"/><line x1="1130" y1="735" x2="1130" y2="855" class="thin"/><line x1="1240" y1="735" x2="1240" y2="855" class="thin"/><text x="938" y="759" class="small" text-anchor="middle">图名</text><text x="1060" y="759" class="small" text-anchor="middle">组合体投影识读图</text><text x="1185" y="759" class="small" text-anchor="middle">图号</text><text x="1300" y="759" class="small" text-anchor="middle">DRAW-020</text><text x="938" y="794" class="small" text-anchor="middle">材料</text><text x="1060" y="794" class="txt" text-anchor="middle">HT200</text><text x="1185" y="794" class="small" text-anchor="middle">比例</text><text x="1300" y="794" class="small" text-anchor="middle">1:2</text><text x="938" y="829" class="small" text-anchor="middle">单位</text><text x="1060" y="829" class="small" text-anchor="middle">mm</text><text x="1185" y="829" class="small" text-anchor="middle">工造星球</text><text x="1300" y="829" class="small" text-anchor="middle">审核</text>
  <text x="700" y="65" class="label" text-anchor="middle">组合体投影识读图</text>
  
    <text x="305" y="100" class="label" text-anchor="middle">主视图</text> <text x="305" y="445" class="label" text-anchor="middle">俯视图</text> <text x="780" y="100" class="label" text-anchor="middle">左视图</text>
    <path d="M145 280 H500 V205 H420 V150 H270 V205 H145 Z" class="thick" fill="none"/>
    <rect x="245" y="225" width="120" height="55" class="hidden"/> <circle cx="385" cy="235" r="22" class="hidden" /> <line x1="132" y1="225" x2="512" y2="225" class="center"/><line x1="322" y1="150" x2="322" y2="300" class="center"/>
    <line x1="145" y1="280" x2="145" y2="322" class="thin"/><line x1="500" y1="280" x2="500" y2="322" class="thin"/><line x1="145" y1="322" x2="500" y2="322" class="dim"/><text x="322.5" y="317" class="dimtxt" text-anchor="middle">170</text> <line x1="270" y1="150" x2="270" y2="115" class="thin"/><line x1="420" y1="150" x2="420" y2="115" class="thin"/><line x1="270" y1="115" x2="420" y2="115" class="dim"/><text x="345" y="110" class="dimtxt" text-anchor="middle">凸台宽70</text>
    <path d="M145 520 H500 V610 H145 Z M245 520 V610 M365 520 V610" class="thick" fill="none"/> <circle cx="385" cy="565" r="22" class="thin" /> <rect x="245" y="542" width="120" height="46" class="thin" /> <line x1="127" y1="565" x2="517" y2="565" class="center"/><line x1="322" y1="507.5" x2="322" y2="622.5" class="center"/>
    <path d="M710 205 H850 V305 H710 Z M740 205 V160 H820 V205" class="thick" fill="none"/> <rect x="735" y="235" width="90" height="42" class="hidden" /> <line x1="695" y1="255" x2="865" y2="255" class="center"/><line x1="780" y1="180" x2="780" y2="330" class="center"/>
    <text x="955" y="175" class="small" text-anchor="start">考点：叠加体与切割槽在三视图中的对应。</text> <text x="955" y="205" class="small" text-anchor="start">虚线用于表达被遮挡的槽和圆柱孔。</text>
  
  </svg>
