<svg xmlns="http://www.w3.org/2000/svg" width="1400" height="900" viewBox="0 0 1400 900">
  <defs><marker id="arrow" viewBox="0 0 8 8" refX="4" refY="4" markerWidth="6" markerHeight="6" orient="auto-start-reverse"><path d="M0,0 L8,4 L0,8 Z" fill="#111"/></marker></defs>
  <style>
    svg{background:#fff;font-family:"Microsoft YaHei","SimSun",Arial,sans-serif}.border{fill:none;stroke:#111;stroke-width:1.4}.thick{fill:none;stroke:#111;stroke-width:2.8;stroke-linejoin:round;stroke-linecap:round}.thin{fill:none;stroke:#111;stroke-width:1.15;stroke-linejoin:round}.hidden{fill:none;stroke:#111;stroke-width:1.05;stroke-dasharray:8 5}.center,.centerline{fill:none;stroke:#111;stroke-width:1;stroke-dasharray:18 5 3 5}.void{fill:none;stroke:#111;stroke-width:1.2}.hatch{stroke:#111;stroke-width:.8}.dim{fill:none;stroke:#111;stroke-width:1;marker-start:url(#arrow);marker-end:url(#arrow)}.txt{font-size:18px;fill:#111}.dimtxt{font-size:16px;fill:#111}.small{font-size:15px;fill:#111}.label{font-size:20px;font-weight:700;fill:#111}
  </style>
  <rect x="40" y="35" width="1320" height="820" class="border" /><rect x="880" y="735" width="480" height="120" class="thin" /><line x1="880" y1="770" x2="1360" y2="770" class="thin"/><line x1="880" y1="805" x2="1360" y2="805" class="thin"/><line x1="995" y1="735" x2="995" y2="855" class="thin"/><line x1="1130" y1="735" x2="1130" y2="855" class="thin"/><line x1="1240" y1="735" x2="1240" y2="855" class="thin"/><text x="938" y="759" class="small" text-anchor="middle">图名</text><text x="1060" y="759" class="small" text-anchor="middle">滑座剖视图</text><text x="1185" y="759" class="small" text-anchor="middle">图号</text><text x="1300" y="759" class="small" text-anchor="middle">DRAW-015</text><text x="938" y="794" class="small" text-anchor="middle">材料</text><text x="1060" y="794" class="txt" text-anchor="middle">HT200</text><text x="1185" y="794" class="small" text-anchor="middle">比例</text><text x="1300" y="794" class="small" text-anchor="middle">1:2</text><text x="938" y="829" class="small" text-anchor="middle">单位</text><text x="1060" y="829" class="small" text-anchor="middle">mm</text><text x="1185" y="829" class="small" text-anchor="middle">工造星球</text><text x="1300" y="829" class="small" text-anchor="middle">审核</text>
  <text x="700" y="65" class="label" text-anchor="middle">滑座剖视图</text>
  
    <pattern id="p15" width="8" height="8" patternUnits="userSpaceOnUse" patternTransform="rotate(45)"><line x1="0" y1="0" x2="0" y2="8" class="hatch"/></pattern>
    <text x="330" y="105" class="label" text-anchor="middle">剖视主视图</text> <text x="330" y="475" class="label" text-anchor="middle">俯视图</text> <text x="790" y="105" class="label" text-anchor="middle">导轨面局部</text>
    <path d="M140 300 H520 V210 H430 L385 270 L340 210 H140 Z" class="thick" fill="url(#p15)"/>
    <path d="M340 210 L385 270 L430 210" class="void"/> <line x1="120" y1="255" x2="540" y2="255" class="center"/><line x1="330" y1="180" x2="330" y2="330" class="center"/>
    <line x1="140" y1="300" x2="140" y2="344" class="thin"/><line x1="520" y1="300" x2="520" y2="344" class="thin"/><line x1="140" y1="344" x2="520" y2="344" class="dim"/><text x="330" y="339" class="dimtxt" text-anchor="middle">180</text> <line x1="140" y1="210" x2="98" y2="210" class="thin"/><line x1="140" y1="300" x2="98" y2="300" class="thin"/><line x1="98" y1="210" x2="98" y2="300" class="dim"/><text x="92" y="255" class="dimtxt" text-anchor="end">65</text> <text x="385" y="198" class="small" text-anchor="middle">燕尾槽 60°</text>
    <rect x="140" y="530" width="380" height="90" class="thick" /> <rect x="245" y="545" width="170" height="60" class="thin" /> <circle cx="190" cy="575" r="12" class="thin" /> <circle cx="470" cy="575" r="12" class="thin" /> <line x1="120" y1="575" x2="540" y2="575" class="center"/><line x1="330" y1="517.5" x2="330" y2="632.5" class="center"/>
    <path d="M720 215 H870 M735 250 H855 M755 285 H835" class="thick" fill="none"/> <text x="795" y="330" class="small" text-anchor="middle">A基准导轨面 Ra0.8</text>
    <text x="960" y="175" class="label" text-anchor="start">技术要求：</text> <text x="960" y="205" class="small" text-anchor="start">1. A基准面对底面平行度 0.03。</text> <text x="960" y="233" class="small" text-anchor="start">2. 燕尾槽两侧面成组加工。</text>
  
  </svg>
