<svg xmlns="http://www.w3.org/2000/svg" width="1400" height="900" viewBox="0 0 1400 900">
  <defs><marker id="arrow" viewBox="0 0 8 8" refX="4" refY="4" markerWidth="6" markerHeight="6" orient="auto-start-reverse"><path d="M0,0 L8,4 L0,8 Z" fill="#111"/></marker></defs>
  <style>
    svg{background:#fff;font-family:"Microsoft YaHei","SimSun",Arial,sans-serif}.border{fill:none;stroke:#111;stroke-width:1.4}.thick{fill:none;stroke:#111;stroke-width:2.8;stroke-linejoin:round;stroke-linecap:round}.thin{fill:none;stroke:#111;stroke-width:1.15;stroke-linejoin:round}.hidden{fill:none;stroke:#111;stroke-width:1.05;stroke-dasharray:8 5}.center,.centerline{fill:none;stroke:#111;stroke-width:1;stroke-dasharray:18 5 3 5}.void{fill:none;stroke:#111;stroke-width:1.2}.hatch{stroke:#111;stroke-width:.8}.dim{fill:none;stroke:#111;stroke-width:1;marker-start:url(#arrow);marker-end:url(#arrow)}.txt{font-size:18px;fill:#111}.dimtxt{font-size:16px;fill:#111}.small{font-size:15px;fill:#111}.label{font-size:20px;font-weight:700;fill:#111}
  </style>
  <rect x="40" y="35" width="1320" height="820" class="border" /><rect x="880" y="735" width="480" height="120" class="thin" /><line x1="880" y1="770" x2="1360" y2="770" class="thin"/><line x1="880" y1="805" x2="1360" y2="805" class="thin"/><line x1="995" y1="735" x2="995" y2="855" class="thin"/><line x1="1130" y1="735" x2="1130" y2="855" class="thin"/><line x1="1240" y1="735" x2="1240" y2="855" class="thin"/><text x="938" y="759" class="small" text-anchor="middle">图名</text><text x="1060" y="759" class="small" text-anchor="middle">法兰端盖全剖图</text><text x="1185" y="759" class="small" text-anchor="middle">图号</text><text x="1300" y="759" class="small" text-anchor="middle">DRAW-003</text><text x="938" y="794" class="small" text-anchor="middle">材料</text><text x="1060" y="794" class="txt" text-anchor="middle">HT200</text><text x="1185" y="794" class="small" text-anchor="middle">比例</text><text x="1300" y="794" class="small" text-anchor="middle">1:2</text><text x="938" y="829" class="small" text-anchor="middle">单位</text><text x="1060" y="829" class="small" text-anchor="middle">mm</text><text x="1185" y="829" class="small" text-anchor="middle">工造星球</text><text x="1300" y="829" class="small" text-anchor="middle">审核</text>
  <text x="700" y="65" class="label" text-anchor="middle">法兰端盖全剖图</text>
  
    <pattern id="p3" width="8" height="8" patternUnits="userSpaceOnUse" patternTransform="rotate(45)"><line x1="0" y1="0" x2="0" y2="8" class="hatch"/></pattern>
    <text x="300" y="92" class="label" text-anchor="middle">全剖主视图</text> <text x="750" y="92" class="label" text-anchor="middle">端面视图</text>
    <path d="M160 210 H225 V150 H375 V185 H460 V295 H375 V330 H225 V270 H160 Z" class="thick" fill="url(#p3)"/>
    <path d="M160 225 H460 M160 255 H460" class="void"/> <line x1="135" y1="240" x2="485" y2="240" class="center"/><line x1="310" y1="125" x2="310" y2="355" class="center"/>
    <line x1="160" y1="350" x2="160" y2="385" class="thin"/><line x1="460" y1="350" x2="460" y2="385" class="thin"/><line x1="160" y1="385" x2="460" y2="385" class="dim"/><text x="310" y="380" class="dimtxt" text-anchor="middle">厚度 56</text> <line x1="225" y1="150" x2="225" y2="115" class="thin"/><line x1="375" y1="150" x2="375" y2="115" class="thin"/><line x1="225" y1="115" x2="375" y2="115" class="dim"/><text x="300" y="110" class="dimtxt" text-anchor="middle">Ø90凸台</text> <line x1="145" y1="185" x2="103" y2="185" class="thin"/><line x1="145" y1="295" x2="103" y2="295" class="thin"/><line x1="103" y1="185" x2="103" y2="295" class="dim"/><text x="97" y="240" class="dimtxt" text-anchor="end">Ø130</text> <line x1="475" y1="225" x2="530" y2="225" class="thin"/><line x1="475" y1="255" x2="530" y2="255" class="thin"/><line x1="530" y1="225" x2="530" y2="255" class="dim"/><text x="524" y="240" class="dimtxt" text-anchor="end">Ø40H8</text>
    <circle cx="750" cy="240" r="110" class="thick" /> <circle cx="750" cy="240" r="72" class="centerline" /> <circle cx="750" cy="240" r="36" class="thin" /> <line x1="625" y1="240" x2="875" y2="240" class="center"/><line x1="750" y1="115" x2="750" y2="365" class="center"/>
    <circle cx="822" cy="240" r="10" class="thin" /><circle cx="750" cy="312" r="10" class="thin" /><circle cx="678" cy="240" r="10" class="thin" /><circle cx="750" cy="168" r="10" class="thin" /><circle cx="820.7106781186548" cy="310.71067811865476" r="6" class="hidden" /><circle cx="679.2893218813452" cy="310.71067811865476" r="6" class="hidden" />
    <text x="750" y="384" class="small" text-anchor="middle">4×Ø12通孔 均布于Ø144</text> <text x="940" y="170" class="small" text-anchor="start">形位公差：中心孔轴线 ⌀0.03 A</text> <text x="940" y="204" class="small" text-anchor="start">技术要求：剖面线只画实体，孔腔留白。</text> <text x="940" y="238" class="small" text-anchor="start">规范训练图：端面孔系数量、孔径和分布圆标注完整。</text>
  
  </svg>
