<svg xmlns="http://www.w3.org/2000/svg" width="1400" height="900" viewBox="0 0 1400 900">
  <defs><marker id="arrow" viewBox="0 0 8 8" refX="4" refY="4" markerWidth="6" markerHeight="6" orient="auto-start-reverse"><path d="M0,0 L8,4 L0,8 Z" fill="#111"/></marker></defs>
  <style>
    svg{background:#fff;font-family:"Microsoft YaHei","SimSun",Arial,sans-serif}.border{fill:none;stroke:#111;stroke-width:1.4}.thick{fill:none;stroke:#111;stroke-width:2.8;stroke-linejoin:round;stroke-linecap:round}.thin{fill:none;stroke:#111;stroke-width:1.15;stroke-linejoin:round}.hidden{fill:none;stroke:#111;stroke-width:1.05;stroke-dasharray:8 5}.center,.centerline{fill:none;stroke:#111;stroke-width:1;stroke-dasharray:18 5 3 5}.void{fill:none;stroke:#111;stroke-width:1.2}.hatch{stroke:#111;stroke-width:.8}.dim{fill:none;stroke:#111;stroke-width:1;marker-start:url(#arrow);marker-end:url(#arrow)}.txt{font-size:18px;fill:#111}.dimtxt{font-size:16px;fill:#111}.small{font-size:15px;fill:#111}.label{font-size:20px;font-weight:700;fill:#111}
  </style>
  <rect x="40" y="35" width="1320" height="820" class="border" /><rect x="880" y="735" width="480" height="120" class="thin" /><line x1="880" y1="770" x2="1360" y2="770" class="thin"/><line x1="880" y1="805" x2="1360" y2="805" class="thin"/><line x1="995" y1="735" x2="995" y2="855" class="thin"/><line x1="1130" y1="735" x2="1130" y2="855" class="thin"/><line x1="1240" y1="735" x2="1240" y2="855" class="thin"/><text x="938" y="759" class="small" text-anchor="middle">图名</text><text x="1060" y="759" class="small" text-anchor="middle">定位块三视图</text><text x="1185" y="759" class="small" text-anchor="middle">图号</text><text x="1300" y="759" class="small" text-anchor="middle">DRAW-010</text><text x="938" y="794" class="small" text-anchor="middle">材料</text><text x="1060" y="794" class="txt" text-anchor="middle">HT200</text><text x="1185" y="794" class="small" text-anchor="middle">比例</text><text x="1300" y="794" class="small" text-anchor="middle">1:2</text><text x="938" y="829" class="small" text-anchor="middle">单位</text><text x="1060" y="829" class="small" text-anchor="middle">mm</text><text x="1185" y="829" class="small" text-anchor="middle">工造星球</text><text x="1300" y="829" class="small" text-anchor="middle">审核</text>
  <text x="700" y="65" class="label" text-anchor="middle">定位块三视图</text>
  
    <pattern id="p10" width="8" height="8" patternUnits="userSpaceOnUse" patternTransform="rotate(45)"><line x1="0" y1="0" x2="0" y2="8" class="hatch"/></pattern>
    <text x="285" y="92" class="label" text-anchor="middle">主视图</text> <text x="285" y="430" class="label" text-anchor="middle">俯视图</text> <text x="760" y="92" class="label" text-anchor="middle">左视图</text>
    <rect x="135" y="185" width="310" height="120" class="thick" /> <rect x="235" y="185" width="100" height="55" class="hidden" fill="none"/>
    <circle cx="190" cy="245" r="14" class="thin" /> <circle cx="390" cy="245" r="14" class="thin" /> <line x1="110" y1="245" x2="460" y2="245" class="center"/><line x1="285" y1="175" x2="285" y2="315" class="center"/>
    <line x1="135" y1="305" x2="135" y2="347" class="thin"/><line x1="445" y1="305" x2="445" y2="347" class="thin"/><line x1="135" y1="347" x2="445" y2="347" class="dim"/><text x="290" y="342" class="dimtxt" text-anchor="middle">150</text> <line x1="190" y1="245" x2="190" y2="325" class="thin"/><line x1="390" y1="245" x2="390" y2="325" class="thin"/><line x1="190" y1="325" x2="390" y2="325" class="dim"/><text x="290" y="320" class="dimtxt" text-anchor="middle">孔距100</text> <line x1="135" y1="185" x2="91" y2="185" class="thin"/><line x1="135" y1="305" x2="91" y2="305" class="thin"/><line x1="91" y1="185" x2="91" y2="305" class="dim"/><text x="85" y="245" class="dimtxt" text-anchor="end">50</text>
    <rect x="135" y="485" width="310" height="94" class="thick" /> <rect x="235" y="505" width="100" height="42" class="thin" fill="none"/>
    <circle cx="190" cy="532" r="14" class="thin" /> <circle cx="390" cy="532" r="14" class="thin" /> <line x1="110" y1="532" x2="460" y2="532" class="center"/><line x1="285" y1="474.5" x2="285" y2="589.5" class="center"/> <line x1="135" y1="579" x2="135" y2="619" class="thin"/><line x1="445" y1="579" x2="445" y2="619" class="thin"/><line x1="135" y1="619" x2="445" y2="619" class="dim"/><text x="290" y="614" class="dimtxt" text-anchor="middle">150</text> <text x="285" y="623" class="small" text-anchor="middle">槽宽 36 深12</text>
    <rect x="700" y="205" width="120" height="100" class="thick" /> <rect x="728" y="205" width="64" height="42" class="hidden" fill="none"/> <line x1="685" y1="255" x2="835" y2="255" class="center"/><line x1="760" y1="192.5" x2="760" y2="317.5" class="center"/>
    <text x="960" y="170" class="label" text-anchor="start">技术要求：</text> <text x="960" y="202" class="small" text-anchor="start">1. 槽底与基准面平行度 0.05。</text> <text x="960" y="230" class="small" text-anchor="start">2. 未注倒角 C1。</text> <text x="960" y="258" class="small" text-anchor="start">规范训练图：槽和斜面在三视图中对应表达。</text>
  
  </svg>
