<svg xmlns="http://www.w3.org/2000/svg" width="1400" height="900" viewBox="0 0 1400 900">
  <defs><marker id="arrow" viewBox="0 0 8 8" refX="4" refY="4" markerWidth="6" markerHeight="6" orient="auto-start-reverse"><path d="M0,0 L8,4 L0,8 Z" fill="#111"/></marker></defs>
  <style>
    svg{background:#fff;font-family:"Microsoft YaHei","SimSun",Arial,sans-serif}.border{fill:none;stroke:#111;stroke-width:1.4}.thick{fill:none;stroke:#111;stroke-width:2.8;stroke-linejoin:round;stroke-linecap:round}.thin{fill:none;stroke:#111;stroke-width:1.15;stroke-linejoin:round}.hidden{fill:none;stroke:#111;stroke-width:1.05;stroke-dasharray:8 5}.center,.centerline{fill:none;stroke:#111;stroke-width:1;stroke-dasharray:18 5 3 5}.void{fill:none;stroke:#111;stroke-width:1.2}.hatch{stroke:#111;stroke-width:.8}.dim{fill:none;stroke:#111;stroke-width:1;marker-start:url(#arrow);marker-end:url(#arrow)}.txt{font-size:18px;fill:#111}.dimtxt{font-size:16px;fill:#111}.small{font-size:15px;fill:#111}.label{font-size:20px;font-weight:700;fill:#111}
  </style>
  <rect x="40" y="35" width="1320" height="820" class="border" /><rect x="880" y="735" width="480" height="120" class="thin" /><line x1="880" y1="770" x2="1360" y2="770" class="thin"/><line x1="880" y1="805" x2="1360" y2="805" class="thin"/><line x1="995" y1="735" x2="995" y2="855" class="thin"/><line x1="1130" y1="735" x2="1130" y2="855" class="thin"/><line x1="1240" y1="735" x2="1240" y2="855" class="thin"/><text x="938" y="759" class="small" text-anchor="middle">图名</text><text x="1060" y="759" class="small" text-anchor="middle">轴承座半剖三视图</text><text x="1185" y="759" class="small" text-anchor="middle">图号</text><text x="1300" y="759" class="small" text-anchor="middle">DRAW-001</text><text x="938" y="794" class="small" text-anchor="middle">材料</text><text x="1060" y="794" class="txt" text-anchor="middle">45钢</text><text x="1185" y="794" class="small" text-anchor="middle">比例</text><text x="1300" y="794" class="small" text-anchor="middle">1:2</text><text x="938" y="829" class="small" text-anchor="middle">单位</text><text x="1060" y="829" class="small" text-anchor="middle">mm</text><text x="1185" y="829" class="small" text-anchor="middle">工造星球</text><text x="1300" y="829" class="small" text-anchor="middle">审核</text>
  <text x="700" y="65" class="label" text-anchor="middle">轴承座半剖三视图</text>
  
    <pattern id="p1" width="8" height="8" patternUnits="userSpaceOnUse" patternTransform="rotate(45)"><line x1="0" y1="0" x2="0" y2="8" class="hatch"/></pattern>
    <text x="310" y="82" class="label" text-anchor="middle">主视图（半剖）</text> <text x="320" y="430" class="label" text-anchor="middle">俯视图</text> <text x="760" y="102" class="label" text-anchor="middle">左视图</text>
    <rect x="145" y="245" width="330" height="48" class="thick" /> <rect x="205" y="180" width="210" height="65" class="thick" /> <circle cx="310" cy="180" r="84" class="thick" /> <circle cx="310" cy="180" r="42" class="thin" />
    <path d="M238 245 L275 205 L275 245 Z M382 245 L345 205 L345 245 Z" class="thick" fill="none"/>
    <path d="M310 96 A84 84 0 0 1 310 264 L310 222 A42 42 0 0 0 310 138 Z" fill="url(#p1)" class="thin"/>
    <line x1="195" y1="180" x2="425" y2="180" class="center"/><line x1="310" y1="75" x2="310" y2="285" class="center"/> <circle cx="195" cy="269" r="14" class="thin" /> <circle cx="425" cy="269" r="14" class="thin" />
    <line x1="145" y1="293" x2="145" y2="331" class="thin"/><line x1="475" y1="293" x2="475" y2="331" class="thin"/><line x1="145" y1="331" x2="475" y2="331" class="dim"/><text x="310" y="326" class="dimtxt" text-anchor="middle">160</text> <line x1="310" y1="96" x2="185" y2="96" class="thin"/><line x1="310" y1="264" x2="185" y2="264" class="thin"/><line x1="185" y1="96" x2="185" y2="264" class="dim"/><text x="179" y="180" class="dimtxt" text-anchor="end">Ø80</text> <line x1="310" y1="138" x2="442" y2="138" class="thin"/><line x1="310" y1="222" x2="442" y2="222" class="thin"/><line x1="442" y1="138" x2="442" y2="222" class="dim"/><text x="436" y="180" class="dimtxt" text-anchor="end">Ø40H7</text> <line x1="145" y1="245" x2="103" y2="245" class="thin"/><line x1="145" y1="293" x2="103" y2="293" class="thin"/><line x1="103" y1="245" x2="103" y2="293" class="dim"/><text x="97" y="269" class="dimtxt" text-anchor="end">18</text>
    <rect x="145" y="485" width="330" height="105" class="thick" /> <rect x="205" y="510" width="210" height="55" class="thin" /> <circle cx="195" cy="537" r="16" class="thin" /> <circle cx="425" cy="537" r="16" class="thin" /> <circle cx="195" cy="537" r="28" class="hidden" /> <circle cx="425" cy="537" r="28" class="hidden" />
    <path d="M245 590 L285 510 L335 510 L375 590" class="thin" fill="none"/> <line x1="125" y1="537" x2="495" y2="537" class="center"/><line x1="310" y1="474.5" x2="310" y2="599.5" class="center"/>
    <line x1="145" y1="590" x2="145" y2="638" class="thin"/><line x1="475" y1="590" x2="475" y2="638" class="thin"/><line x1="145" y1="638" x2="475" y2="638" class="dim"/><text x="310" y="633" class="dimtxt" text-anchor="middle">160</text> <line x1="195" y1="537" x2="195" y2="665" class="thin"/><line x1="425" y1="537" x2="425" y2="665" class="thin"/><line x1="195" y1="665" x2="425" y2="665" class="dim"/><text x="310" y="660" class="dimtxt" text-anchor="middle">2×Ø14通孔，Ø26沉孔深4</text> <line x1="145" y1="485" x2="97" y2="485" class="thin"/><line x1="145" y1="590" x2="97" y2="590" class="thin"/><line x1="97" y1="485" x2="97" y2="590" class="dim"/><text x="91" y="537.5" class="dimtxt" text-anchor="end">70</text>
    <rect x="700" y="230" width="125" height="62" class="thick" /> <rect x="728" y="122" width="70" height="108" class="thick" /> <circle cx="763" cy="176" r="42" class="thick" /> <circle cx="763" cy="176" r="21" class="hidden" /> <line x1="693" y1="176" x2="833" y2="176" class="center"/><line x1="763" y1="101" x2="763" y2="251" class="center"/>
    <rect x="740" y="230" width="46" height="62" class="thin" fill="url(#p1)"/> <line x1="700" y1="292" x2="700" y2="330" class="thin"/><line x1="825" y1="292" x2="825" y2="330" class="thin"/><line x1="700" y1="330" x2="825" y2="330" class="dim"/><text x="762.5" y="325" class="dimtxt" text-anchor="middle">70</text> <line x1="728" y1="122" x2="728" y2="110" class="thin"/><line x1="798" y1="122" x2="798" y2="110" class="thin"/><line x1="728" y1="110" x2="798" y2="110" class="dim"/><text x="763" y="105" class="dimtxt" text-anchor="middle">48</text>
    <text x="1040" y="165" class="label" text-anchor="start">技术要求：</text> <text x="1040" y="198" class="small" text-anchor="start">1. 未注圆角 R3；去毛刺。</text> <text x="1040" y="226" class="small" text-anchor="start">2. 轴承孔表面 Ra1.6，其余 Ra6.3。</text> <text x="1040" y="254" class="small" text-anchor="start">3. 纵向剖切肋板不画剖面线。</text>
  
  </svg>
