<svg xmlns="http://www.w3.org/2000/svg" width="1400" height="900" viewBox="0 0 1400 900">
  <defs><marker id="arrow" viewBox="0 0 8 8" refX="4" refY="4" markerWidth="6" markerHeight="6" orient="auto-start-reverse"><path d="M0,0 L8,4 L0,8 Z" fill="#111"/></marker></defs>
  <style>
    svg{background:#fff;font-family:"Microsoft YaHei","SimSun",Arial,sans-serif}.border{fill:none;stroke:#111;stroke-width:1.4}.thick{fill:none;stroke:#111;stroke-width:2.8;stroke-linejoin:round;stroke-linecap:round}.thin{fill:none;stroke:#111;stroke-width:1.15;stroke-linejoin:round}.hidden{fill:none;stroke:#111;stroke-width:1.05;stroke-dasharray:8 5}.center,.centerline{fill:none;stroke:#111;stroke-width:1;stroke-dasharray:18 5 3 5}.void{fill:none;stroke:#111;stroke-width:1.2}.hatch{stroke:#111;stroke-width:.8}.dim{fill:none;stroke:#111;stroke-width:1;marker-start:url(#arrow);marker-end:url(#arrow)}.txt{font-size:18px;fill:#111}.dimtxt{font-size:16px;fill:#111}.small{font-size:15px;fill:#111}.label{font-size:20px;font-weight:700;fill:#111}
  </style>
  <rect x="40" y="35" width="1320" height="820" class="border" /><rect x="880" y="735" width="480" height="120" class="thin" /><line x1="880" y1="770" x2="1360" y2="770" class="thin"/><line x1="880" y1="805" x2="1360" y2="805" class="thin"/><line x1="995" y1="735" x2="995" y2="855" class="thin"/><line x1="1130" y1="735" x2="1130" y2="855" class="thin"/><line x1="1240" y1="735" x2="1240" y2="855" class="thin"/><text x="938" y="759" class="small" text-anchor="middle">图名</text><text x="1060" y="759" class="small" text-anchor="middle">带油槽衬套全剖图</text><text x="1185" y="759" class="small" text-anchor="middle">图号</text><text x="1300" y="759" class="small" text-anchor="middle">DRAW-019</text><text x="938" y="794" class="small" text-anchor="middle">材料</text><text x="1060" y="794" class="txt" text-anchor="middle">45钢</text><text x="1185" y="794" class="small" text-anchor="middle">比例</text><text x="1300" y="794" class="small" text-anchor="middle">1:2</text><text x="938" y="829" class="small" text-anchor="middle">单位</text><text x="1060" y="829" class="small" text-anchor="middle">mm</text><text x="1185" y="829" class="small" text-anchor="middle">工造星球</text><text x="1300" y="829" class="small" text-anchor="middle">审核</text>
  <text x="700" y="65" class="label" text-anchor="middle">带油槽衬套全剖图</text>
  
    <pattern id="p19" width="8" height="8" patternUnits="userSpaceOnUse" patternTransform="rotate(45)"><line x1="0" y1="0" x2="0" y2="8" class="hatch"/></pattern>
    <text x="390" y="105" class="label" text-anchor="middle">主视图（全剖）</text> <text x="390" y="438" class="label" text-anchor="middle">端视图</text> <text x="790" y="105" class="label" text-anchor="middle">油槽展开示意</text>
    <path d="M145 185 H625 V275 H565 V305 H205 V275 H145 Z" class="thick" fill="url(#p19)"/>
    <path d="M145 218 H625 M145 242 H625" class="void"/> <line x1="117.5" y1="230" x2="652.5" y2="230" class="center"/><line x1="385" y1="152.5" x2="385" y2="307.5" class="center"/>
    <path d="M225 218 C285 180,345 280,405 218 S525 280,585 218" class="thin" fill="none"/> <text x="380" y="168" class="small" text-anchor="middle">螺旋油槽</text>
    <line x1="145" y1="305" x2="145" y2="347" class="thin"/><line x1="625" y1="305" x2="625" y2="347" class="thin"/><line x1="145" y1="347" x2="625" y2="347" class="dim"/><text x="385" y="342" class="dimtxt" text-anchor="middle">总长 95</text> <line x1="630" y1="185" x2="678" y2="185" class="thin"/><line x1="630" y1="275" x2="678" y2="275" class="thin"/><line x1="678" y1="185" x2="678" y2="275" class="dim"/><text x="672" y="230" class="dimtxt" text-anchor="end">Ø42</text> <line x1="130" y1="218" x2="92" y2="218" class="thin"/><line x1="130" y1="242" x2="92" y2="242" class="thin"/><line x1="92" y1="218" x2="92" y2="242" class="dim"/><text x="86" y="230" class="dimtxt" text-anchor="end">Ø24H7</text>
    <circle cx="390" cy="540" r="70" class="thick" /> <circle cx="390" cy="540" r="28" class="thin" /> <line x1="305" y1="540" x2="475" y2="540" class="center"/><line x1="390" y1="455" x2="390" y2="625" class="center"/>
    <path d="M700 200 H880 M700 245 H880 M710 245 L870 200" class="thin" fill="none"/> <text x="790" y="292" class="small" text-anchor="middle">油槽宽3 深1</text>
    <text x="960" y="175" class="label" text-anchor="start">技术要求：</text> <text x="960" y="205" class="small" text-anchor="start">1. 内孔 Ø24H7，Ra1.6。</text> <text x="960" y="233" class="small" text-anchor="start">2. 油槽不得误画成贯通切口。</text>
  
  </svg>
